<?xml version="1.0" encoding="UTF-8" standalone="no"?>
<!DOCTYPE svg PUBLIC "-//W3C//DTD SVG 1.1//EN" "http://www.w3.org/Graphics/SVG/1.1/DTD/svg11.dtd">
<!-- Generated by Microsoft Visio, SVG Export system.svg Page-1 -->
<svg xmlns="http://www.w3.org/2000/svg" xmlns:xlink="http://www.w3.org/1999/xlink" xmlns:ev="http://www.w3.org/2001/xml-events"
		xmlns:v="http://schemas.microsoft.com/visio/2003/SVGExtensions/" width="6.85039in" height="5.86614in"
		viewBox="0 0 493.228 422.362" xml:space="preserve" color-interpolation-filters="sRGB" class="st22">
	<v:documentProperties v:langID="1033" v:metric="true" v:viewMarkup="false">
		<v:userDefs>
			<v:ud v:nameU="msvSubprocessMaster" v:prompt="" v:val="VT4(Rectangle)"/>
			<v:ud v:nameU="msvNoAutoConnect" v:val="VT0(1):26"/>
		</v:userDefs>
	</v:documentProperties>

	<style type="text/css">
	<![CDATA[
		.st1 {fill:#ffffff;stroke:#000000;stroke-width:1}
		.st2 {fill:#000000;font-family:Calibri;font-size:0.833336em}
		.st3 {fill:#000000}
		.st4 {fill:#000000;stroke:#c8c8c8;stroke-width:0.25}
		.st5 {fill:#ffffff;stroke:#c8c8c8;stroke-width:0.25}
		.st6 {fill:#ffffff;stroke:none;stroke-width:0.25}
		.st7 {stroke:#000000;stroke-linecap:round;stroke-linejoin:round;stroke-width:1}
		.st8 {fill:#000000;font-family:Calibri;font-size:1.00001em}
		.st9 {font-size:1em}
		.st10 {marker-end:url(#mrkr4-47);marker-start:url(#mrkr4-45);stroke:#000000;stroke-linecap:round;stroke-linejoin:round;stroke-width:1}
		.st11 {fill:#000000;fill-opacity:1;stroke:#000000;stroke-opacity:1;stroke-width:0.28409090909091}
		.st12 {fill:none;stroke:#000000;stroke-dasharray:7,5;stroke-width:1}
		.st13 {fill:#c00000;stroke:#c8c8c8;stroke-width:0.25}
		.st14 {stroke:#c00000;stroke-linecap:round;stroke-linejoin:round;stroke-width:1}
		.st15 {fill:#ffffff;stroke:#c00000;stroke-width:1}
		.st16 {fill:#c00000;font-family:Calibri;font-size:1.16666em}
		.st17 {fill:#c00000;stroke:#ffffff;stroke-width:0.25}
		.st18 {fill:#ffffff;stroke:#ffffff;stroke-width:0.25}
		.st19 {fill:#c00000;font-family:Calibri;font-size:1.00001em}
		.st20 {fill:#ffffff;stroke:#000000;stroke-dasharray:7,5;stroke-width:1}
		.st21 {marker-start:url(#mrkr4-45);stroke:#000000;stroke-dasharray:7,5;stroke-linecap:round;stroke-linejoin:round;stroke-width:1}
		.st22 {fill:none;fill-rule:evenodd;font-size:12px;overflow:visible;stroke-linecap:square;stroke-miterlimit:3}
	]]>
	</style>

	<defs id="Markers">
		<g id="lend4">
			<path d="M 2 1 L 0 0 L 2 -1 L 2 1 " style="stroke:none"/>
		</g>
		<marker id="mrkr4-45" class="st11" v:arrowType="4" v:arrowSize="2" v:setback="6.68" refX="6.68" orient="auto"
				markerUnits="strokeWidth" overflow="visible">
			<use xlink:href="#lend4" transform="scale(3.52) "/>
		</marker>
		<marker id="mrkr4-47" class="st11" v:arrowType="4" v:arrowSize="2" v:setback="7.04" refX="-7.04" orient="auto"
				markerUnits="strokeWidth" overflow="visible">
			<use xlink:href="#lend4" transform="scale(-3.52,-3.52) "/>
		</marker>
	</defs>
	<g v:mID="0" v:index="1" v:groupContext="foregroundPage">
		<v:userDefs>
			<v:ud v:nameU="msvThemeOrder" v:val="VT0(0):26"/>
		</v:userDefs>
		<title>Page-1</title>
		<v:pageProperties v:drawingScale="0.0393701" v:pageScale="0.0393701" v:drawingUnits="24" v:shadowOffsetX="8.50394"
				v:shadowOffsetY="-8.50394"/>
		<v:layer v:name="Flowchart" v:index="0"/>
		<v:layer v:name="Connector" v:index="1"/>
		<g id="group1-1" transform="translate(41.1024,-54.0365)" v:mID="1" v:groupContext="group">
			<v:userDefs>
				<v:ud v:nameU="visVersion" v:prompt="" v:val="VT0(15):26"/>
			</v:userDefs>
			<title>Can</title>
			<desc>RDF Database</desc>
			<g id="shape2-2" v:mID="2" v:groupContext="shape">
				<title>Sheet.2</title>
				<v:userDefs>
					<v:ud v:nameU="ControlHalfHeight" v:prompt="" v:val="VT0(0.11811023622047):24"/>
					<v:ud v:nameU="FillForegnd" v:prompt="" v:val="VT5(1)"/>
					<v:ud v:nameU="FillForegnd" v:prompt="" v:val="VT5(#ffffff)"/>
				</v:userDefs>
				<path d="M0 413.86 A42.5197 8.50394 -180 1 0 85.04 413.86 L85.04 345.83 L0 345.83 L0 413.86 Z" class="st1"/>
			</g>
			<g id="shape1-4" v:mID="1" v:groupContext="groupContent">
				<v:textBlock v:margins="rect(4,4,4,4)" v:tabSpace="42.5197"/>
				<v:textRect cx="42.5197" cy="379.843" width="85.04" height="85.0394"/>
				<ellipse cx="42.5197" cy="345.827" rx="42.5197" ry="8.50394" class="st1"/>
				<text x="14.29" y="382.84" class="st2" v:langID="1045"><v:paragraph v:horizAlign="1"/><v:tabList/>RDF Database</text>			</g>
		</g>
		<g id="group4-7" transform="translate(222.52,-117.112)" v:mID="4" v:groupContext="group" v:layerMember="0">
			<v:userDefs>
				<v:ud v:nameU="visVersion" v:prompt="" v:val="VT0(15):26"/>
				<v:ud v:nameU="ConnGap" v:prompt="" v:val="VT0(0.00012908222537757):24"/>
			</v:userDefs>
			<title>Document</title>
			<g id="shape5-8" v:mID="5" v:groupContext="shape" v:layerMember="0">
				<title>Sheet.5</title>
				<path d="M62.36 352.25 L46.86 335.75 L0 335.75 L0 422.36 L62.36 422.36 L62.36 352.25 Z" class="st1"/>
			</g>
			<g id="shape6-10" v:mID="6" v:groupContext="shape" v:layerMember="0" transform="translate(11.3681,-17.4243)">
				<title>Sheet.6</title>
				<v:userDefs>
					<v:ud v:nameU="SurroundingRegionColor" v:prompt="" v:val="VT5(1)"/>
					<v:ud v:nameU="SurroundingRegionColor" v:prompt="" v:val="VT5(#ffffff)"/>
				</v:userDefs>
				<path d="M23.39 422.36 L39.3 422.36 L39.3 420.16 L23.39 420.16 L23.39 422.36 ZM0 412.04 L39.3 412.04 L39.3 409.84
							 L0 409.84 L0 412.04 ZM0 401.72 L39.3 401.72 L39.3 399.52 L0 399.52 L0 401.72 ZM0 391.4 L39.3 391.4 L39.3
							 389.21 L0 389.21 L0 391.4 ZM0 381.09 L15.92 381.09 L15.92 378.89 L0 378.89 L0 381.09 ZM0 370.77 L15.92
							 370.77 L15.92 368.57 L0 368.57 L0 370.77 ZM35.04 353.75 L35.04 369.72 L50.04 369.72 L35.04 353.75 Z"
						class="st3"/>
			</g>
		</g>
		<g id="shape10-13" v:mID="10" v:groupContext="shape" transform="translate(361.417,-118.097)">
			<title>Rectangle</title>
			<desc>?</desc>
			<v:userDefs>
				<v:ud v:nameU="visVersion" v:val="VT0(15):26"/>
			</v:userDefs>
			<v:textBlock v:margins="rect(4,4,4,4)" v:tabSpace="42.5197"/>
			<v:textRect cx="56.6929" cy="379.843" width="113.39" height="85.0394"/>
			<rect x="0" y="337.323" width="113.386" height="85.0394" class="st1"/>
			<text x="54.38" y="382.84" class="st2" v:langID="1045"><v:paragraph v:horizAlign="1"/><v:tabList/>?</text>		</g>
		<g id="group17-16" transform="translate(403.937,-247.742)" v:mID="17" v:groupContext="group">
			<title>Sheet.17</title>
			<g id="shape13-17" v:mID="13" v:groupContext="shape">
				<title>Circle</title>
				<v:userDefs>
					<v:ud v:nameU="visVersion" v:val="VT0(15):26"/>
				</v:userDefs>
				<path d="M0 408.19 A14.1732 14.1732 0 1 1 28.35 408.19 A14.1732 14.1732 0 0 1 0 408.19 Z" class="st4"/>
			</g>
			<g id="shape14-19" v:mID="14" v:groupContext="shape" transform="translate(1.41732,-1.41732)">
				<title>Circle.14</title>
				<v:userDefs>
					<v:ud v:nameU="visVersion" v:val="VT0(15):26"/>
				</v:userDefs>
				<path d="M0 409.61 A12.7559 12.7559 0 1 1 25.51 409.61 A12.7559 12.7559 0 1 1 0 409.61 Z" class="st5"/>
			</g>
			<g id="shape16-21" v:mID="16" v:groupContext="shape" transform="translate(-7.99361E-15,-16.7379)">
				<title>Box</title>
				<v:userDefs>
					<v:ud v:nameU="visVersion" v:val="VT0(15):26"/>
				</v:userDefs>
				<rect x="0" y="407.244" width="28.3465" height="15.1181" class="st6"/>
			</g>
		</g>
		<g id="shape19-23" v:mID="19" v:groupContext="shape" v:layerMember="1" transform="translate(411.024,-249.159)">
			<title>Dynamic connector</title>
			<path d="M7.09 422.36 L7.09 468.39" class="st7"/>
		</g>
		<g id="shape20-26" v:mID="20" v:groupContext="shape" transform="translate(391.618,-216.758)">
			<title>Sheet.20</title>
			<desc>SPARQL</desc>
			<v:textBlock v:margins="rect(4,4,4,4)" v:tabSpace="42.5197"/>
			<v:textRect cx="26.4927" cy="412.362" width="52.99" height="20"/>
			<rect x="0" y="402.362" width="52.9854" height="20" class="st6"/>
			<text x="7.35" y="415.96" class="st8" v:langID="1045"><v:paragraph v:horizAlign="1"/><v:tabList/>SPARQL</text>		</g>
		<g id="shape23-29" v:mID="23" v:groupContext="shape" transform="translate(345.118,-89.7505)">
			<title>Sheet.23</title>
			<desc>External Vocabulary System</desc>
			<v:textBlock v:margins="rect(4,4,4,4)" v:tabSpace="42.5197"/>
			<v:textRect cx="72.9921" cy="412.362" width="145.99" height="20"/>
			<rect x="0" y="402.362" width="145.984" height="20" class="st6"/>
			<text x="5.31" y="415.96" class="st8" v:langID="1045"><v:paragraph v:horizAlign="1"/><v:tabList/>External Vocabulary System</text>		</g>
		<g id="shape25-32" v:mID="25" v:groupContext="shape" transform="translate(8.50394,-9.29494)">
			<title>Sheet.25</title>
			<desc>Corporate Vocab Management System</desc>
			<v:textBlock v:margins="rect(4,4,4,4)" v:tabSpace="42.5197"/>
			<v:textRect cx="72.9921" cy="412.362" width="145.99" height="20"/>
			<rect x="0" y="402.362" width="145.984" height="20" class="st6"/>
			<text x="31.77" y="408.76" class="st8" v:langID="1045"><v:paragraph v:horizAlign="1"/><v:tabList/>Corporate Vocab <tspan
						x="21.25" dy="1.2em" class="st9">Management System</tspan></text>		</g>
		<g id="shape26-36" v:mID="26" v:groupContext="shape" transform="translate(26.9291,-157.622)">
			<title>Rectangle.26</title>
			<desc>VocBench</desc>
			<v:userDefs>
				<v:ud v:nameU="visVersion" v:val="VT0(15):26"/>
			</v:userDefs>
			<v:textBlock v:margins="rect(4,4,4,4)" v:tabSpace="42.5197"/>
			<v:textRect cx="56.6929" cy="404.784" width="113.39" height="35.1572"/>
			<rect x="0" y="387.205" width="113.386" height="35.1572" class="st1"/>
			<text x="36.53" y="407.78" class="st2" v:langID="1045"><v:paragraph v:horizAlign="1"/><v:tabList/>VocBench</text>		</g>
		<g id="shape33-39" v:mID="33" v:groupContext="shape" v:layerMember="1" transform="translate(76.5354,-157.622)">
			<title>Dynamic connector.33</title>
			<path d="M7.09 429.04 L7.09 429.4 L7.09 433.87" class="st10"/>
		</g>
		<g id="shape34-48" v:mID="34" v:groupContext="shape" transform="translate(15.5906,-41.9721)">
			<title>Rectangle.34</title>
			<v:userDefs>
				<v:ud v:nameU="visVersion" v:val="VT0(15):26"/>
			</v:userDefs>
			<path d="M0 422.36 L138.9 422.36 L138.9 260.79 L0 260.79 L0 422.36 Z" class="st12"/>
		</g>
		<g id="group37-50" transform="translate(69.4488,-246.067)" v:mID="37" v:groupContext="group">
			<title>Sheet.37</title>
			<g id="shape38-51" v:mID="38" v:groupContext="shape">
				<title>Circle</title>
				<v:userDefs>
					<v:ud v:nameU="visVersion" v:val="VT0(15):26"/>
				</v:userDefs>
				<path d="M0 408.19 A14.1732 14.1732 0 1 1 28.35 408.19 A14.1732 14.1732 0 0 1 0 408.19 Z" class="st4"/>
			</g>
			<g id="shape39-53" v:mID="39" v:groupContext="shape" transform="translate(1.41732,-1.41732)">
				<title>Circle.14</title>
				<v:userDefs>
					<v:ud v:nameU="visVersion" v:val="VT0(15):26"/>
				</v:userDefs>
				<path d="M0 409.61 A12.7559 12.7559 0 1 1 25.51 409.61 A12.7559 12.7559 0 1 1 0 409.61 Z" class="st5"/>
			</g>
			<g id="shape40-55" v:mID="40" v:groupContext="shape" transform="translate(-7.99361E-15,-16.7379)">
				<title>Box</title>
				<v:userDefs>
					<v:ud v:nameU="visVersion" v:val="VT0(15):26"/>
				</v:userDefs>
				<rect x="0" y="407.244" width="28.3465" height="15.1181" class="st6"/>
			</g>
		</g>
		<g id="shape41-57" v:mID="41" v:groupContext="shape" v:layerMember="1" transform="translate(90.7087,-247.484)">
			<title>Dynamic connector.41</title>
			<path d="M-7.09 422.36 L-7.09 477.07" class="st7"/>
		</g>
		<g id="shape42-60" v:mID="42" v:groupContext="shape" transform="translate(26.9291,-214.807)">
			<title>Sheet.42</title>
			<desc>Semantic Turkey API</desc>
			<v:textBlock v:margins="rect(4,4,4,4)" v:tabSpace="42.5197"/>
			<v:textRect cx="56.6929" cy="412.362" width="113.39" height="20"/>
			<rect x="0" y="402.362" width="113.386" height="20" class="st6"/>
			<text x="6.81" y="415.96" class="st8" v:langID="1045"><v:paragraph v:horizAlign="1"/><v:tabList/>Semantic Turkey API</text>		</g>
		<g id="shape44-63" v:mID="44" v:groupContext="shape" transform="translate(74.7807,-250.988)">
			<title>Circle.44</title>
			<v:userDefs>
				<v:ud v:nameU="visVersion" v:val="VT0(15):26"/>
			</v:userDefs>
			<path d="M0 413.52 A8.84139 8.84139 0 0 1 17.68 413.52 A8.84139 8.84139 0 1 1 -0 413.52 Z" class="st13"/>
		</g>
		<g id="shape45-65" v:mID="45" v:groupContext="shape" transform="translate(409.269,-253.485)">
			<title>Circle.45</title>
			<v:userDefs>
				<v:ud v:nameU="visVersion" v:val="VT0(15):26"/>
			</v:userDefs>
			<path d="M0 413.52 A8.84139 8.84139 0 0 1 17.68 413.52 A8.84139 8.84139 0 1 1 -0 413.52 Z" class="st13"/>
		</g>
		<g id="shape48-67" v:mID="48" v:groupContext="shape" transform="translate(676.063,120.013) rotate(90)">
			<title>Double tree square</title>
			<v:userDefs>
				<v:ud v:nameU="Scale" v:val="VT0(1):26"/>
				<v:ud v:nameU="AntiScale" v:val="VT0(1):26"/>
				<v:ud v:nameU="visVersion" v:val="VT0(15):26"/>
			</v:userDefs>
			<path d="M0 422.36 L87.87 422.36" class="st14"/>
			<path d="M87.87 422.36 L87.87 464.88 L99.21 464.88" class="st14"/>
			<path d="M87.87 422.36 L87.87 379.84 L99.21 379.84" class="st14"/>
		</g>
		<g id="shape49-72" v:mID="49" v:groupContext="shape" v:layerMember="1" transform="translate(83.6221,-262.833)">
			<title>Dynamic connector.49</title>
			<path d="M0 416.52 L0 405.89 L334.49 405.89 L334.49 414.03" class="st14"/>
		</g>
		<g id="shape50-75" v:mID="50" v:groupContext="shape" transform="translate(69.4488,-302.349)">
			<title>Rectangle.50</title>
			<desc>Vocabatron</desc>
			<v:userDefs>
				<v:ud v:nameU="visVersion" v:val="VT0(15):26"/>
			</v:userDefs>
			<v:textBlock v:margins="rect(4,4,4,4)" v:tabSpace="42.5197"/>
			<v:textRect cx="184.252" cy="398.268" width="368.51" height="48.189"/>
			<rect x="0" y="374.173" width="368.504" height="48.189" class="st15"/>
			<text x="151.09" y="402.47" class="st16" v:langID="1045"><v:paragraph v:horizAlign="1"/><v:tabList/>Vocabatron</text>		</g>
		<g id="group70-78" transform="translate(341.575,-351.125)" v:mID="70" v:groupContext="group">
			<title>Sheet.70</title>
			<g id="shape58-79" v:mID="58" v:groupContext="shape" transform="translate(-7.99361E-15,-23.663)">
				<title>Circle</title>
				<v:userDefs>
					<v:ud v:nameU="visVersion" v:val="VT0(15):26"/>
				</v:userDefs>
				<path d="M0 408.19 A14.1732 14.1732 0 1 1 28.35 408.19 A14.1732 14.1732 0 0 1 0 408.19 Z" class="st17"/>
			</g>
			<g id="shape59-81" v:mID="59" v:groupContext="shape" transform="translate(1.41732,-25.0803)">
				<title>Circle.14</title>
				<v:userDefs>
					<v:ud v:nameU="visVersion" v:val="VT0(15):26"/>
				</v:userDefs>
				<path d="M0 409.61 A12.7559 12.7559 0 1 1 25.51 409.61 A12.7559 12.7559 0 1 1 0 409.61 Z" class="st18"/>
			</g>
			<g id="shape60-83" v:mID="60" v:groupContext="shape" transform="translate(-7.99361E-15,-40.4009)">
				<title>Box</title>
				<v:userDefs>
					<v:ud v:nameU="visVersion" v:val="VT0(15):26"/>
				</v:userDefs>
				<rect x="0" y="407.244" width="28.3465" height="15.1181" class="st18"/>
			</g>
			<g id="shape61-85" v:mID="61" v:groupContext="shape" v:layerMember="1" transform="translate(7.08661,-24.3379)">
				<title>Dynamic connector.61</title>
				<path d="M7.09 422.36 L7.09 446.7" class="st14"/>
			</g>
		</g>
		<g id="group71-88" transform="translate(239.528,-350.538)" v:mID="71" v:groupContext="group">
			<title>Sheet.71</title>
			<g id="shape63-89" v:mID="63" v:groupContext="shape" transform="translate(-7.99361E-15,-23.8788)">
				<title>Circle.63</title>
				<v:userDefs>
					<v:ud v:nameU="visVersion" v:val="VT0(15):26"/>
				</v:userDefs>
				<path d="M0 408.19 A14.1732 14.1732 0 1 1 28.35 408.19 A14.1732 14.1732 0 0 1 0 408.19 Z" class="st17"/>
			</g>
			<g id="shape64-91" v:mID="64" v:groupContext="shape" transform="translate(1.41732,-25.2961)">
				<title>Circle.64</title>
				<v:userDefs>
					<v:ud v:nameU="visVersion" v:val="VT0(15):26"/>
				</v:userDefs>
				<path d="M0 409.61 A12.7559 12.7559 0 1 1 25.51 409.61 A12.7559 12.7559 0 1 1 0 409.61 Z" class="st18"/>
			</g>
			<g id="shape65-93" v:mID="65" v:groupContext="shape" transform="translate(-7.99361E-15,-40.6166)">
				<title>Box.65</title>
				<v:userDefs>
					<v:ud v:nameU="visVersion" v:val="VT0(15):26"/>
				</v:userDefs>
				<rect x="0" y="407.244" width="28.3465" height="15.1181" class="st18"/>
			</g>
			<g id="shape66-95" v:mID="66" v:groupContext="shape" v:layerMember="1" transform="translate(7.08661,-25.2961)">
				<title>Dynamic connector.66</title>
				<path d="M7.09 422.36 L7.09 447.66" class="st14"/>
			</g>
		</g>
		<g id="group72-98" transform="translate(134.646,-350.538)" v:mID="72" v:groupContext="group">
			<title>Sheet.72</title>
			<g id="shape52-99" v:mID="52" v:groupContext="shape" transform="translate(-7.99361E-15,-22.9206)">
				<title>Circle.52</title>
				<v:userDefs>
					<v:ud v:nameU="visVersion" v:val="VT0(15):26"/>
				</v:userDefs>
				<path d="M0 408.19 A14.1732 14.1732 0 1 1 28.35 408.19 A14.1732 14.1732 0 0 1 0 408.19 Z" class="st17"/>
			</g>
			<g id="shape53-101" v:mID="53" v:groupContext="shape" transform="translate(1.41732,-24.3379)">
				<title>Circle.53</title>
				<v:userDefs>
					<v:ud v:nameU="visVersion" v:val="VT0(15):26"/>
				</v:userDefs>
				<path d="M0 409.61 A12.7559 12.7559 0 1 1 25.51 409.61 A12.7559 12.7559 0 1 1 0 409.61 Z" class="st18"/>
			</g>
			<g id="shape54-103" v:mID="54" v:groupContext="shape" transform="translate(-7.99361E-15,-39.6585)">
				<title>Box.54</title>
				<v:userDefs>
					<v:ud v:nameU="visVersion" v:val="VT0(15):26"/>
				</v:userDefs>
				<rect x="0" y="407.244" width="28.3465" height="15.1181" class="st18"/>
			</g>
			<g id="shape55-105" v:mID="55" v:groupContext="shape" v:layerMember="1" transform="translate(7.08661,-24.3379)">
				<title>Dynamic connector.55</title>
				<path d="M7.09 422.36 L7.09 446.7" class="st14"/>
			</g>
		</g>
		<g id="shape73-108" v:mID="73" v:groupContext="shape" transform="translate(122.326,-390.065)">
			<title>Sheet.73</title>
			<desc>SPARQL</desc>
			<v:textBlock v:margins="rect(4,4,4,4)" v:tabSpace="42.5197"/>
			<v:textRect cx="26.4927" cy="412.362" width="52.99" height="20"/>
			<rect x="0" y="402.362" width="52.9854" height="20" class="st6"/>
			<text x="7.35" y="415.96" class="st19" v:langID="1045"><v:paragraph v:horizAlign="1"/><v:tabList/>SPARQL</text>		</g>
		<g id="shape74-111" v:mID="74" v:groupContext="shape" transform="translate(207.78,-391.562)">
			<title>Sheet.74</title>
			<desc>HTML Web Page</desc>
			<v:textBlock v:margins="rect(4,4,4,4)" v:tabSpace="42.5197"/>
			<v:textRect cx="45.9213" cy="412.362" width="91.85" height="20"/>
			<rect x="0" y="402.362" width="91.8425" height="20" class="st6"/>
			<text x="5.63" y="415.96" class="st19" v:langID="1045"><v:paragraph v:horizAlign="1"/><v:tabList/>HTML Web Page</text>		</g>
		<g id="shape75-114" v:mID="75" v:groupContext="shape" transform="translate(310.394,-391.562)">
			<title>Sheet.75</title>
			<desc>Linked Data API</desc>
			<v:textBlock v:margins="rect(4,4,4,4)" v:tabSpace="42.5197"/>
			<v:textRect cx="45.9213" cy="412.362" width="91.85" height="20"/>
			<rect x="0" y="402.362" width="91.8425" height="20" class="st6"/>
			<text x="7.76" y="415.96" class="st19" v:langID="1045"><v:paragraph v:horizAlign="1"/><v:tabList/>Linked Data API</text>		</g>
		<g id="group76-117" transform="translate(211.181,-8.50394)" v:mID="76" v:groupContext="group">
			<v:userDefs>
				<v:ud v:nameU="visVersion" v:prompt="" v:val="VT0(15):26"/>
			</v:userDefs>
			<title>Can.76</title>
			<desc>GitHub</desc>
			<g id="shape77-118" v:mID="77" v:groupContext="shape">
				<title>Sheet.77</title>
				<v:userDefs>
					<v:ud v:nameU="ControlHalfHeight" v:prompt="" v:val="VT0(0.11811023622047):24"/>
					<v:ud v:nameU="FillForegnd" v:prompt="" v:val="VT5(1)"/>
					<v:ud v:nameU="ControlHalfHeight" v:prompt="" v:val="VT0(0.077409387551449):1"/>
					<v:ud v:nameU="FillForegnd" v:prompt="" v:val="VT5(#ffffff)"/>
				</v:userDefs>
				<path d="M0 416.79 A42.5197 5.57348 -180 1 0 85.04 416.79 L85.04 372.2 L0 372.2 L0 416.79 Z" class="st20"/>
			</g>
			<g id="shape76-120" v:mID="76" v:groupContext="groupContent">
				<v:textBlock v:margins="rect(4,4,4,4)" v:tabSpace="42.5197"/>
				<v:textRect cx="42.5197" cy="394.495" width="85.04" height="55.7348"/>
				<ellipse cx="42.5197" cy="372.201" rx="42.5197" ry="5.57348" class="st20"/>
				<text x="28.17" y="397.49" class="st2" v:langID="1045"><v:paragraph v:horizAlign="1"/><v:tabList/>GitHub</text>			</g>
		</g>
		<g id="shape78-123" v:mID="78" v:groupContext="shape" v:layerMember="1" transform="translate(246.614,-117.103)">
			<title>Dynamic connector.78</title>
			<path d="M7.09 429.04 L7.09 429.4 L7.09 475.23" class="st21"/>
		</g>
		<g id="shape79-128" v:mID="79" v:groupContext="shape" transform="translate(192.047,-86.9159)">
			<title>Sheet.79</title>
			<desc>Vocabulary in RDF File</desc>
			<v:textBlock v:margins="rect(4,4,4,4)" v:tabSpace="42.5197"/>
			<v:textRect cx="61.6535" cy="412.362" width="123.31" height="20"/>
			<rect x="0" y="402.362" width="123.307" height="20" class="st6"/>
			<text x="7.51" y="415.96" class="st8" v:langID="1045"><v:paragraph v:horizAlign="1"/><v:tabList/>Vocabulary in RDF File</text>		</g>
	</g>
</svg>
