<?xml version="1.0" encoding="utf-8"?>
<!-- Generator: Adobe Illustrator 24.0.1, SVG Export Plug-In . SVG Version: 6.00 Build 0)  -->
<svg version="1.1" id="Layer_1" xmlns="http://www.w3.org/2000/svg" xmlns:xlink="http://www.w3.org/1999/xlink" x="0px" y="0px"
	 viewBox="0 0 535.52 224.68" style="enable-background:new 0 0 535.52 224.68;" xml:space="preserve">
<style type="text/css">
	.st0{fill:#FFFFFF;}
	.st1{fill:#AD9C70;}
</style>
<g>
	<g>
		<g>
			<path class="st0" d="M259.72,69.26v-39.5h10.93c1.14,0,2.16,0.02,3.07,0.07c0.9,0.05,1.94,0.15,3.11,0.3
				c1.17,0.15,2.19,0.37,3.08,0.65c0.89,0.28,1.78,0.67,2.69,1.18c0.9,0.51,1.65,1.11,2.24,1.8c0.59,0.7,1.07,1.57,1.44,2.6
				c0.37,1.04,0.56,2.21,0.56,3.51c0,3.91-1.75,6.72-5.24,8.44c2.35,0.63,4.11,1.82,5.29,3.57c1.18,1.75,1.76,3.82,1.76,6.23
				c0,1.5-0.3,2.91-0.9,4.22c-0.6,1.31-1.47,2.49-2.63,3.54c-1.16,1.05-2.68,1.88-4.57,2.48c-1.89,0.61-4.03,0.91-6.42,0.91H259.72z
				 M266.61,46.14h5.89c0.92,0,1.77-0.09,2.55-0.26c0.78-0.17,1.51-0.46,2.21-0.85c0.7-0.4,1.24-0.96,1.64-1.68
				c0.4-0.72,0.6-1.59,0.6-2.6c0-1.95-0.68-3.29-2.03-4c-1.36-0.71-3.49-1.07-6.4-1.07h-4.45V46.14z M266.69,63.37h6.21
				c5.55,0,8.33-1.85,8.33-5.56c0-2.32-0.62-3.91-1.86-4.77c-1.24-0.87-3.45-1.3-6.63-1.3h-6.05V63.37z"/>
			<path class="st0" d="M295.48,69.26V48.48c0-1.09-0.05-2.22-0.14-3.39c-0.09-1.18-0.18-2.08-0.27-2.71l-0.14-0.95h7.16v3.66
				c1.1-1.45,2.2-2.54,3.3-3.27c1.09-0.73,2.33-1.1,3.7-1.1c0.81,0,1.74,0.14,2.77,0.41v5.89c-1.21-0.4-2.33-0.6-3.36-0.6
				c-1.86,0-3.38,0.61-4.56,1.82c-1.18,1.21-1.76,2.97-1.76,5.26v15.76H295.48z"/>
			<path class="st0" d="M316.29,35.67v-5.91h6.51v5.91H316.29z M316.32,69.26V41.42h6.48v27.83H316.32z"/>
			<path class="st0" d="M347.04,69.23h-2.71c-1.09,0-2.03-0.03-2.82-0.08c-0.8-0.05-1.61-0.17-2.46-0.35
				c-0.84-0.18-1.56-0.42-2.14-0.72c-0.59-0.3-1.15-0.7-1.7-1.21c-0.54-0.51-0.98-1.12-1.3-1.83c-0.33-0.71-0.58-1.57-0.77-2.56
				c-0.19-0.99-0.28-2.13-0.28-3.42V45.93h-5.81v-4.5h6.08v-6.51l6.43-1.98v8.49h7.27v4.5h-7.27v13.54c0,0.87,0.07,1.57,0.2,2.1
				c0.14,0.53,0.34,0.98,0.61,1.33s0.73,0.61,1.37,0.77c0.64,0.16,1.34,0.27,2.1,0.33c0.76,0.05,1.83,0.08,3.2,0.08V69.23z"/>
			<path class="st0" d="M352.35,35.67v-5.91h6.51v5.91H352.35z M352.37,69.26V41.42h6.48v27.83H352.37z"/>
			<path class="st0" d="M376.93,69.88c-2.44,0-4.68-0.34-6.73-1.03c-2.04-0.69-3.67-1.51-4.88-2.47l1.68-4.83
				c1.14,0.89,2.58,1.61,4.31,2.18c1.74,0.57,3.41,0.86,5.02,0.86c1.5,0,2.64-0.25,3.4-0.76c0.77-0.51,1.15-1.33,1.15-2.47v-0.49
				c0-0.58-0.23-1.07-0.68-1.48c-0.45-0.41-1.49-0.87-3.12-1.4l-3.96-1.28c-1.01-0.33-1.85-0.63-2.52-0.91
				c-0.67-0.28-1.35-0.64-2.05-1.07c-0.7-0.43-1.24-0.91-1.63-1.42c-0.39-0.52-0.71-1.15-0.95-1.9c-0.24-0.75-0.37-1.61-0.37-2.59
				c0-1.41,0.28-2.65,0.83-3.72c0.55-1.07,1.32-1.91,2.29-2.52c0.98-0.62,2.06-1.07,3.26-1.37c1.19-0.3,2.5-0.45,3.93-0.45
				c1.77,0,3.54,0.23,5.32,0.68c1.77,0.45,3.33,1.12,4.67,2.01l-1.74,4.61c-1.09-0.58-2.36-1.07-3.81-1.46
				c-1.46-0.4-2.77-0.6-3.95-0.6c-1.54,0-2.65,0.19-3.34,0.57c-0.69,0.38-1.03,1-1.03,1.87c0,0.58,0.11,1.03,0.33,1.36
				s0.67,0.66,1.36,1c0.69,0.34,1.79,0.77,3.31,1.28l3.61,1.22c1.45,0.49,2.61,1.02,3.49,1.6c0.88,0.58,1.58,1.4,2.12,2.47
				c0.53,1.07,0.8,2.41,0.8,4.02c0,1.23-0.2,2.34-0.61,3.34c-0.41,0.99-0.94,1.81-1.6,2.44c-0.66,0.63-1.44,1.16-2.33,1.57
				c-0.9,0.42-1.8,0.71-2.73,0.88C378.86,69.79,377.91,69.88,376.93,69.88z"/>
			<path class="st0" d="M393.03,69.26V29.73h6.73v15.3c0.67-1.28,1.84-2.32,3.53-3.12c1.68-0.8,3.28-1.19,4.8-1.19
				c1.28,0,2.46,0.15,3.51,0.46c1.06,0.31,1.95,0.71,2.67,1.22c0.72,0.51,1.36,1.13,1.9,1.86c0.54,0.73,0.97,1.47,1.28,2.22
				c0.31,0.75,0.56,1.58,0.75,2.48c0.19,0.9,0.32,1.73,0.38,2.47c0.06,0.74,0.09,1.52,0.09,2.33v15.49h-6.73V53.55
				c0-2.62-0.41-4.51-1.22-5.66c-0.81-1.15-2.03-1.72-3.66-1.72c-1.84,0-3.52,0.64-5.03,1.91c-1.51,1.28-2.27,2.74-2.27,4.41v16.77
				H393.03z"/>
			<path class="st0" d="M277.65,126.65c-6.49,0-11.49-1.77-14.99-5.32c-3.5-3.55-5.25-8.35-5.25-14.41c0-2.26,0.28-4.44,0.85-6.53
				c0.57-2.09,1.44-4.02,2.6-5.79c1.17-1.77,2.57-3.31,4.22-4.63c1.65-1.31,3.6-2.34,5.87-3.08c2.27-0.74,4.73-1.11,7.39-1.11
				c1.86,0,3.56,0.13,5.09,0.39c1.53,0.26,2.83,0.64,3.92,1.13c1.09,0.49,1.89,0.89,2.41,1.21c0.52,0.32,1.1,0.72,1.74,1.21
				l-2.77,4.83c-2.59-1.88-6.04-2.82-10.36-2.82c-2.28,0-4.32,0.42-6.13,1.28c-1.81,0.85-3.26,1.99-4.34,3.42
				c-1.09,1.43-1.91,3.01-2.47,4.75c-0.56,1.74-0.84,3.55-0.84,5.45c0,2.08,0.28,3.98,0.84,5.7c0.56,1.72,1.38,3.21,2.47,4.46
				c1.09,1.26,2.48,2.23,4.19,2.93c1.71,0.7,3.67,1.05,5.87,1.05c2.19,0,4.44-0.34,6.76-1.03v-9.33h-9.22v-5.89h16.22v19.13
				C287.23,125.65,282.53,126.65,277.65,126.65z"/>
			<path class="st0" d="M313.57,126.65c-4.68,0-8.38-1.34-11.08-4.02c-2.7-2.68-4.06-6.18-4.06-10.5c0-1.95,0.33-3.81,0.98-5.56
				c0.65-1.75,1.57-3.31,2.75-4.67s2.69-2.43,4.5-3.23c1.82-0.8,3.83-1.19,6.04-1.19s4.13,0.38,5.78,1.14
				c1.65,0.76,2.95,1.82,3.91,3.19c0.96,1.37,1.67,2.9,2.13,4.6c0.46,1.7,0.69,3.58,0.69,5.64c0,0.52-0.05,0.92-0.14,1.19h-19.53
				c0.11,2.71,0.94,4.72,2.48,6.02c1.55,1.3,3.6,1.95,6.17,1.95c3,0,5.93-0.99,8.79-2.98l1.82,4.88c-1.75,1.21-3.52,2.1-5.3,2.67
				C317.72,126.36,315.74,126.65,313.57,126.65z M305.62,108.77h13.84c-0.33-1.97-1.06-3.48-2.2-4.53
				c-1.14-1.05-2.53-1.57-4.18-1.57c-1.94,0-3.55,0.54-4.86,1.63C306.93,105.38,306.06,106.87,305.62,108.77z"/>
			<path class="st0" d="M345.21,126.65c-2.42,0-4.58-0.39-6.48-1.18c-1.9-0.79-3.43-1.85-4.6-3.2c-1.17-1.35-2.05-2.88-2.66-4.61
				c-0.61-1.73-0.91-3.58-0.91-5.55c0-2.01,0.31-3.88,0.92-5.63c0.61-1.74,1.51-3.29,2.7-4.64c1.18-1.35,2.72-2.41,4.61-3.19
				c1.89-0.78,4.02-1.17,6.39-1.17c2.42,0,4.58,0.38,6.46,1.15c1.88,0.77,3.39,1.83,4.53,3.17c1.14,1.35,1.99,2.89,2.56,4.64
				c0.57,1.75,0.85,3.65,0.85,5.71c0,1.94-0.3,3.76-0.9,5.47c-0.6,1.71-1.47,3.24-2.62,4.6c-1.15,1.36-2.66,2.43-4.53,3.23
				C349.68,126.25,347.56,126.65,345.21,126.65z M345.08,121.22c1.32,0,2.48-0.25,3.47-0.75c0.99-0.5,1.78-1.18,2.35-2.06
				c0.57-0.88,0.99-1.85,1.28-2.92c0.28-1.07,0.42-2.22,0.42-3.47c0-2.66-0.63-4.84-1.89-6.54c-1.26-1.7-3.12-2.55-5.6-2.55
				c-1.68,0-3.1,0.42-4.26,1.26c-1.16,0.84-1.99,1.93-2.51,3.27c-0.52,1.34-0.77,2.86-0.77,4.56c0,1.68,0.24,3.19,0.72,4.53
				c0.48,1.34,1.3,2.45,2.47,3.34C341.92,120.78,343.36,121.22,345.08,121.22z"/>
			<path class="st0" d="M366.07,126.03V86.5h6.65v39.53H366.07z"/>
			<path class="st0" d="M393.71,126.65c-2.42,0-4.58-0.39-6.48-1.18c-1.9-0.79-3.43-1.85-4.6-3.2c-1.17-1.35-2.05-2.88-2.66-4.61
				c-0.61-1.73-0.91-3.58-0.91-5.55c0-2.01,0.31-3.88,0.92-5.63c0.61-1.74,1.51-3.29,2.7-4.64c1.18-1.35,2.72-2.41,4.61-3.19
				c1.89-0.78,4.02-1.17,6.39-1.17c2.42,0,4.58,0.38,6.46,1.15c1.88,0.77,3.39,1.83,4.53,3.17c1.14,1.35,1.99,2.89,2.56,4.64
				c0.57,1.75,0.85,3.65,0.85,5.71c0,1.94-0.3,3.76-0.9,5.47c-0.6,1.71-1.47,3.24-2.62,4.6c-1.15,1.36-2.66,2.43-4.53,3.23
				C398.17,126.25,396.06,126.65,393.71,126.65z M393.57,121.22c1.32,0,2.48-0.25,3.47-0.75c0.99-0.5,1.78-1.18,2.35-2.06
				c0.57-0.88,0.99-1.85,1.28-2.92c0.28-1.07,0.42-2.22,0.42-3.47c0-2.66-0.63-4.84-1.89-6.54c-1.26-1.7-3.12-2.55-5.6-2.55
				c-1.68,0-3.1,0.42-4.26,1.26c-1.16,0.84-1.99,1.93-2.51,3.27c-0.52,1.34-0.77,2.86-0.77,4.56c0,1.68,0.24,3.19,0.72,4.53
				c0.48,1.34,1.3,2.45,2.47,3.34C390.41,120.78,391.86,121.22,393.57,121.22z"/>
			<path class="st0" d="M426.03,137.37c-3.62,0-7.14-0.63-10.58-1.9l1.17-5.81c2.71,1.41,5.69,2.12,8.93,2.12
				c2.6,0,4.64-0.56,6.1-1.67c1.46-1.11,2.2-2.79,2.2-5.03v-2.36c-1.59,2.21-3.92,3.31-6.97,3.31c-4.11,0-7.4-1.26-9.88-3.79
				c-2.48-2.52-3.72-5.92-3.72-10.19c0-1.95,0.26-3.79,0.79-5.49c0.52-1.71,1.3-3.25,2.33-4.62c1.03-1.37,2.4-2.46,4.11-3.26
				c1.71-0.8,3.66-1.19,5.85-1.19c1.72,0,3.22,0.34,4.52,1.03c1.29,0.69,2.29,1.57,3,2.66v-2.98h7.13
				c-0.36,2.75-0.54,5.86-0.54,9.33v14.51C440.47,132.26,435.65,137.37,426.03,137.37z M427.34,120.95c1.07,0,2.01-0.18,2.82-0.53
				c0.81-0.35,1.47-0.81,1.98-1.38c0.51-0.57,0.92-1.25,1.23-2.05c0.32-0.8,0.53-1.6,0.65-2.4c0.12-0.8,0.18-1.66,0.18-2.56
				c0-2.71-0.57-4.91-1.7-6.58c-1.13-1.67-2.83-2.51-5.09-2.51c-1.56,0-2.88,0.44-3.97,1.32c-1.09,0.88-1.89,1.99-2.37,3.32
				c-0.49,1.34-0.73,2.83-0.73,4.48c0,2.78,0.57,4.96,1.71,6.54S424.95,120.95,427.34,120.95z"/>
			<path class="st0" d="M447.91,92.44v-5.91h6.51v5.91H447.91z M447.94,126.03V98.19h6.48v27.83H447.94z"/>
			<path class="st0" d="M475.35,126.65c-2.26,0-4.33-0.4-6.2-1.19c-1.87-0.8-3.4-1.87-4.6-3.23c-1.19-1.36-2.12-2.91-2.77-4.65
				c-0.65-1.74-0.98-3.58-0.98-5.49c0-2.75,0.57-5.22,1.7-7.42c1.13-2.2,2.8-3.94,5.02-5.24c2.22-1.29,4.8-1.94,7.75-1.94
				c4.38,0,7.74,1.25,10.09,3.74l-2.41,4.34c-2.01-1.77-4.33-2.66-6.97-2.66c-2.64,0-4.67,0.83-6.08,2.5
				c-1.41,1.66-2.12,3.9-2.12,6.7c0,2.73,0.75,4.93,2.25,6.61c1.5,1.67,3.55,2.51,6.16,2.51c0.36,0,0.72-0.02,1.09-0.05
				c0.36-0.04,0.69-0.08,0.98-0.14c0.29-0.05,0.59-0.13,0.91-0.23c0.32-0.1,0.58-0.19,0.8-0.27c0.22-0.08,0.46-0.19,0.73-0.34
				c0.27-0.15,0.48-0.26,0.64-0.34c0.15-0.08,0.35-0.2,0.58-0.37c0.24-0.16,0.39-0.27,0.47-0.33c0.08-0.05,0.23-0.16,0.43-0.31
				c0.21-0.15,0.32-0.24,0.34-0.26l2.03,4.94c-1.56,1.09-3.11,1.88-4.67,2.37C478.98,126.4,477.25,126.65,475.35,126.65z"/>
			<path class="st0" d="M502.69,126.65c-2.26,0-4.29-0.41-6.08-1.22c-1.79-0.81-3.23-1.9-4.31-3.26c-1.09-1.36-1.91-2.87-2.47-4.53
				c-0.56-1.66-0.84-3.41-0.84-5.24c0-1.94,0.29-3.78,0.87-5.52c0.58-1.74,1.42-3.33,2.54-4.75c1.11-1.42,2.58-2.55,4.41-3.39
				c1.83-0.84,3.9-1.26,6.21-1.26c3.36,0,5.95,1.22,7.76,3.66v-2.96h6.59v27.83h-6.76v-3.8
				C508.59,125.18,505.95,126.65,502.69,126.65z M503.53,121.22c2.6,0,4.5-0.83,5.68-2.48c1.18-1.65,1.78-3.87,1.78-6.63
				c0-2.84-0.63-5.08-1.89-6.72c-1.26-1.64-3.16-2.45-5.71-2.45c-2.5,0-4.41,0.82-5.74,2.47c-1.33,1.65-1.99,3.86-1.99,6.65
				c0,2.78,0.66,5.01,1.99,6.67C498.99,120.39,500.95,121.22,503.53,121.22z"/>
			<path class="st0" d="M524.89,126.03V86.5h6.65v39.53H524.89z"/>
			<path class="st0" d="M271.47,183.42c-2.71,0-5.33-0.4-7.84-1.19c-2.51-0.8-4.49-1.9-5.94-3.31l2.93-4.94
				c1.28,0.99,2.95,1.84,5.01,2.52c2.05,0.69,3.86,1.03,5.41,1.03c2.44,0,4.25-0.45,5.41-1.36c1.17-0.9,1.75-2.28,1.75-4.12
				c0-0.72-0.05-1.31-0.16-1.75c-0.11-0.44-0.35-0.9-0.73-1.38c-0.38-0.48-0.95-0.92-1.7-1.33c-0.75-0.41-1.76-0.84-3.02-1.29
				c-0.54-0.18-1.46-0.48-2.75-0.9c-1.29-0.42-2.24-0.73-2.83-0.95c-3.26-1.23-5.62-2.68-7.08-4.35c-1.46-1.67-2.2-3.94-2.2-6.8
				c0-2.32,0.61-4.3,1.83-5.94c1.22-1.65,2.84-2.86,4.87-3.64c2.03-0.78,4.34-1.17,6.95-1.17c3.53,0,6.27,0.34,8.22,1.03
				c1.95,0.69,3.8,1.86,5.53,3.53l-3.53,4.56c-2.22-2.12-5.31-3.17-9.25-3.17c-2.15,0-3.9,0.37-5.25,1.11
				c-1.35,0.74-2.02,1.87-2.02,3.39c0,0.74,0.06,1.35,0.19,1.83c0.13,0.48,0.39,0.95,0.8,1.41c0.41,0.46,0.99,0.89,1.75,1.28
				c0.76,0.39,1.77,0.81,3.04,1.26c0.45,0.16,1.4,0.47,2.84,0.94c1.44,0.46,2.51,0.83,3.21,1.1c3.22,1.28,5.46,2.76,6.73,4.42
				c1.27,1.66,1.9,3.98,1.9,6.95c0,1.97-0.39,3.7-1.17,5.19c-0.78,1.49-1.84,2.66-3.17,3.51c-1.34,0.85-2.82,1.48-4.45,1.9
				C275.1,183.21,273.35,183.42,271.47,183.42z"/>
			<path class="st0" d="M302.29,183.42c-3.36,0-5.99-0.96-7.87-2.89c-1.88-1.93-2.82-4.57-2.82-7.93v-17.63h6.67v17.53
				c0,1.84,0.48,3.22,1.44,4.14c0.96,0.91,2.28,1.37,3.96,1.37c2.01,0,3.49-0.5,4.46-1.51c0.97-1,1.45-2.62,1.45-4.84v-16.68h6.73
				v20.35l0.33,7.49h-6.95l-0.11-4.12c-0.09,0.4-0.29,0.84-0.61,1.32c-0.32,0.48-0.75,0.99-1.3,1.53c-0.55,0.54-1.3,0.99-2.25,1.36
				C304.48,183.24,303.43,183.42,302.29,183.42z"/>
			<path class="st0" d="M324.32,182.79v-20.78c0-1.09-0.05-2.22-0.14-3.39c-0.09-1.18-0.18-2.08-0.27-2.71l-0.14-0.95h7.16v3.66
				c1.1-1.45,2.2-2.54,3.3-3.27c1.09-0.73,2.33-1.1,3.7-1.1c0.81,0,1.74,0.14,2.77,0.41v5.89c-1.21-0.4-2.33-0.6-3.36-0.6
				c-1.86,0-3.38,0.61-4.56,1.82c-1.18,1.21-1.76,2.97-1.76,5.26v15.76H324.32z"/>
			<path class="st0" d="M355.25,182.79l-11.72-27.83h7.49c4.81,12.93,7.33,19.7,7.57,20.32c1.43-3.89,3.86-10.66,7.3-20.32h7.3
				l-11.83,27.83H355.25z"/>
			<path class="st0" d="M390.17,183.42c-4.68,0-8.38-1.34-11.08-4.02c-2.7-2.68-4.06-6.18-4.06-10.5c0-1.95,0.33-3.81,0.98-5.56
				c0.65-1.75,1.57-3.31,2.75-4.67c1.18-1.36,2.69-2.43,4.5-3.23c1.82-0.8,3.83-1.19,6.04-1.19c2.21,0,4.13,0.38,5.78,1.14
				c1.65,0.76,2.95,1.82,3.91,3.19c0.96,1.37,1.67,2.9,2.13,4.6c0.46,1.7,0.69,3.58,0.69,5.64c0,0.52-0.05,0.92-0.14,1.19h-19.53
				c0.11,2.71,0.94,4.72,2.48,6.02c1.55,1.3,3.6,1.95,6.17,1.95c3,0,5.93-0.99,8.79-2.98l1.82,4.88c-1.75,1.21-3.52,2.1-5.3,2.67
				C394.31,183.13,392.34,183.42,390.17,183.42z M382.22,165.54h13.84c-0.33-1.97-1.06-3.48-2.2-4.53
				c-1.14-1.05-2.53-1.57-4.18-1.57c-1.94,0-3.55,0.54-4.86,1.63C383.52,162.15,382.65,163.64,382.22,165.54z"/>
			<path class="st0" d="M410.19,194.87l-2.82-4.56c2.51-0.98,4.4-1.99,5.66-3.03c1.26-1.04,2.1-2.29,2.54-3.76l0.38-1.36
				l-11.83-27.21h7l8.06,19.97l6.95-19.97h6.86l-11.29,29.35c-0.78,1.92-1.8,3.61-3.07,5.09c-1.27,1.47-2.59,2.63-3.96,3.46
				C413.29,193.69,411.8,194.36,410.19,194.87z"/>
		</g>
		<path class="st0" d="M13.67,103.39c4.54-51.1,47.59-91.3,99.85-91.3c52.26,0,95.3,40.2,99.85,91.3h9.69
			C218.48,46.96,171.1,2.44,113.52,2.44S8.55,46.96,3.98,103.39H13.67z"/>
		<path class="st0" d="M213.36,121.29c-4.54,51.1-47.59,91.3-99.85,91.3c-52.26,0-95.3-40.2-99.85-91.3H3.98
			c4.57,56.43,51.95,100.95,109.53,100.95s104.96-44.52,109.53-100.95H213.36z"/>
		<path class="st0" d="M75.62,116.55c3.96-1.29,5.32-3.94,5.32-10.4c0-8.23-2.13-11.08-8.57-11.63c-1.77-0.14-1.77-0.14-11.12-0.2
			H32.92v45.35H61.3c13.25-0.07,13.9-0.14,16.14-1.02c3.49-1.36,4.97-4.69,4.97-11.15C82.42,120.22,80.82,117.57,75.62,116.55z
			 M44.33,104.99h16.91c5.44,0.07,5.62,0.07,6.27,0.2c1.24,0.34,1.77,1.36,1.77,3.26c0,1.63-0.41,2.79-1.3,3.2
			c-0.77,0.41-2.48,0.54-6.74,0.54H44.33V104.99z M69.35,128.24c-0.89,0.48-0.89,0.48-8.04,0.54H44.33v-7.55H61.3
			c6.98,0.07,6.98,0.07,7.57,0.2c1.36,0.34,1.89,1.29,1.89,3.4C70.77,126.75,70.35,127.77,69.35,128.24z"/>
		<path class="st0" d="M112.44,123.01h15.79v1.29c0,5.03-0.35,5.17-14.37,5.17l-7.04-0.14c-3.37-0.14-4.43-0.34-5.44-1.29
			c-1.3-1.22-1.66-3.54-1.66-11.22c0-11.76,0.06-11.83,14.25-11.83c8.99,0,11.77,0.27,12.95,1.22c0.77,0.61,0.89,1.16,0.95,3.81h12
			c-0.06-6.66-0.53-9.45-2.19-11.7c-2.6-3.6-8.04-4.69-22.71-4.69c-25.55,0-27.26,1.43-27.26,22.64c0,14.89,0.65,18.22,4.14,20.88
			c3.31,2.58,7.51,3.2,21.05,3.2c10.7,0,14.84-0.27,18.86-1.22c4.73-1.09,7.27-4.22,7.75-9.52c0.18-2.18,0.41-9.93,0.41-14.42v-1.22
			h-27.5V123.01z"/>
		<path class="st0" d="M190.38,114.03c-2.54-1.84-5.09-2.18-18.09-2.65c-8.34-0.27-11.59-0.48-12.65-0.82
			c-1.24-0.34-1.77-1.22-1.77-2.92c0-3.33,0.83-3.6,11-3.6c8.52,0,9.99,0.14,11,0.82c0.89,0.61,1.06,1.22,1.18,3.74h11.59
			c0.06-0.88,0.06-1.84,0.06-2.11c0-5.37-0.95-8.23-3.31-10.06c-2.78-2.18-6.92-2.79-18.39-2.79c-9.46,0-14.9,0.27-17.21,0.82
			c-5.44,1.36-7.57,5.24-7.57,13.87c0,10,2.72,12.85,12.48,13.19l3.19,0.14l6.39,0.34l9.46,0.41c3.84,0.07,4.73,0.75,4.73,3.47
			c0,4.01,0,4.01-12.89,4.01c-8.46,0-9.76-0.14-10.88-0.95c-0.95-0.68-1.18-1.56-1.18-4.28h-11.65v2.18c0,6.26,0.89,8.91,3.61,10.88
			c2.78,2.04,7.57,2.65,19.81,2.65c11.77,0,16.74-0.34,19.1-1.36c4.08-1.77,5.74-5.64,5.74-13.53
			C194.11,119.13,193.1,116.07,190.38,114.03z"/>
	</g>
	<g>
		<path class="st1" d="M148.25,53.84c-0.5-3.63-2.67-7-5.88-8.81c-1.93-1.09-4.15-1.52-6.4-1.52c-0.14,0-0.28,0.02-0.41,0.02
			c-0.41,0.01-0.83,0.03-1.24,0.07c-0.24,0.02-0.49,0.05-0.73,0.08c-0.4,0.05-0.79,0.11-1.18,0.18c-0.28,0.05-0.56,0.1-0.84,0.16
			c-0.35,0.07-0.69,0.16-1.03,0.24c-0.35,0.09-0.68,0.18-1.02,0.28c-0.26,0.08-0.53,0.16-0.78,0.25c-0.17,0.06-0.34,0.1-0.5,0.16
			c-1.39,0.49-2.79,0.91-4.18,1.26c-0.16,0.04-0.32,0.09-0.48,0.12c-0.6,0.14-1.2,0.27-1.8,0.39c-0.2,0.04-0.41,0.08-0.61,0.12
			c-0.59,0.11-1.19,0.2-1.79,0.28c-0.55,0.08-1.1,0.16-1.65,0.22c0,0-1.21-4.51-1.36-5.03c0.03-0.01,5.29,2.41,5.43,2.44
			c0,0,0-3.3,0-5.07c0-1.77,0-5.07,0-5.07c-0.14,0.04-5.4,2.46-5.41,2.44c0.16-0.67,2.24-6.19,2.31-6.37h-5.17h0h-5.17
			c0.07,0.18,2.14,5.7,2.31,6.37c-0.01,0.01-5.27-2.41-5.41-2.44c0,0,0,3.3,0,5.07c0,1.77,0,5.07,0,5.07
			c0.14-0.04,5.4-2.46,5.43-2.44c-0.14,0.52-1.36,5.03-1.36,5.03c-0.55-0.06-1.1-0.14-1.65-0.22c-0.6-0.08-1.19-0.18-1.79-0.28
			c-0.2-0.04-0.41-0.08-0.61-0.12c-0.6-0.12-1.2-0.24-1.8-0.39c-0.16-0.04-0.32-0.08-0.48-0.12c-1.4-0.35-2.79-0.76-4.18-1.26
			c-0.16-0.06-0.34-0.1-0.5-0.16c-0.26-0.09-0.52-0.17-0.78-0.25c-0.34-0.1-0.67-0.19-1.02-0.28c-0.34-0.09-0.68-0.17-1.03-0.24
			c-0.28-0.06-0.56-0.11-0.84-0.16c-0.39-0.07-0.79-0.13-1.18-0.18c-0.24-0.03-0.49-0.05-0.73-0.08c-0.41-0.04-0.83-0.06-1.24-0.07
			c-0.14,0-0.28-0.02-0.41-0.02c-2.25,0-4.47,0.43-6.4,1.52c-3.21,1.81-5.38,5.18-5.88,8.81c-0.38,2.73,0.48,5.29,1.11,7.91
			c0.36,1.47,0.71,2.94,1.07,4.41c0,0,0,0,0,0c0.84,3.47,1.68,6.95,2.53,10.42c0.01,0.05,0.17,0.85,0.21,0.85
			c0.45,1.96,0.91,3.91,1.36,5.85c0,0,0.01,0,0.01,0c0.01,0.05,0.05,0.08,0.1,0.08c0.04,0,0.07-0.02,0.09-0.05c0,0,0.01,0,0.01,0
			c3.14-4.48,9.43-5.59,21.95-5.83c0,0,0.73,0,0.73,0h1.63c0.09-1.4-0.01-2.62-0.01-2.68c-0.1-2.54-2.18-4.57-4.74-4.57
			c-0.12,0-0.66,0.03-0.92,0.1c-0.81,0.13-1.71,0.42-2.66,1.03c-0.12-4.16,2.55-5.15,3.8-5.39c1.38-0.19,2.77,0.05,3.71,0.67
			c1.26,0.83,2.49,2.18,3.05,4.78v-0.29c0-5.21-2.08-5.66-2-9.59c0.08-3.91,3.68-6.36,3.71-6.39c0.03,0.02,3.63,2.47,3.71,6.39
			c0.08,3.93-2,4.38-2,9.59v0.29c0.57-2.6,1.79-3.96,3.05-4.78c0.94-0.62,2.33-0.85,3.71-0.67c1.25,0.24,3.92,1.24,3.8,5.39
			c-0.95-0.6-1.85-0.9-2.66-1.03c-0.26-0.07-0.8-0.1-0.92-0.1c-2.56,0-4.64,2.03-4.74,4.57c0,0.05-0.09,1.28-0.01,2.68h1.63
			c0,0,0.73,0,0.73,0c12.51,0.24,18.81,1.35,21.95,5.83c0,0,0.01,0,0.01,0c0.02,0.03,0.05,0.05,0.09,0.05c0.05,0,0.09-0.04,0.1-0.08
			c0,0,0.01,0,0.01,0c0.45-1.94,0.9-3.89,1.36-5.85c0.03,0,0.2-0.8,0.21-0.85c0.85-3.47,1.69-6.94,2.53-10.42c0,0,0,0,0,0
			c0.36-1.47,0.71-2.94,1.07-4.41C147.78,59.13,148.63,56.57,148.25,53.84z M93.52,71.82c-1.88,0-3.41-1.53-3.41-3.41
			c0-1.88,1.53-3.41,3.41-3.41c1.88,0,3.41,1.52,3.41,3.41C96.92,70.29,95.4,71.82,93.52,71.82z M106.09,56.18l-6.92,0.04
			c-4.38-0.01-9.67,1.22-12.04,6.43c-2.15-2.09-3.01-4.8-3.21-5.53c-0.19-0.95-0.29-1.82-0.19-2.6c0.3-2.17,1.6-4.14,3.38-5.14
			c1.03-0.58,2.36-0.88,3.95-0.88c1.84,0,3.94,0.4,6.08,1.16c1.85,0.66,3.69,1.19,5.54,1.62l0.01,0.01c0,0,1.33,0.35,3.4,0.58V56.18
			z M133.51,71.82c-1.88,0-3.41-1.53-3.41-3.41c0-1.88,1.52-3.41,3.41-3.41c1.88,0,3.41,1.52,3.41,3.41
			C136.92,70.29,135.4,71.82,133.51,71.82z M143.12,57.12c-0.2,0.73-1.06,3.44-3.21,5.53c-2.37-5.21-7.67-6.44-12.04-6.43
			l-6.92-0.04v-4.32c2.07-0.23,3.4-0.58,3.4-0.58l0.01-0.01c1.85-0.43,3.69-0.96,5.54-1.62c2.13-0.76,4.23-1.16,6.08-1.16
			c1.59,0,2.92,0.3,3.95,0.88c1.79,1.01,3.08,2.98,3.38,5.14C143.41,55.3,143.31,56.17,143.12,57.12z"/>
		<path class="st1" d="M105.28,160.79c8.15,3.02,16,6.91,23.38,11.58h49.36c3.41-3.59,6.52-7.48,9.27-11.58H105.28z"/>
		<path class="st1" d="M151.88,191.32c6.35-3.01,12.33-6.78,17.8-11.22h-30.16C143.88,183.56,148.03,187.33,151.88,191.32z"/>
		<path class="st1" d="M62.05,172.37c25.3,0,49.78,9.15,68.96,25.76c4.51-0.86,8.94-2.07,13.19-3.61
			c-22.07-21.76-51.2-33.73-82.15-33.73c-6.48,0-12.98,0.54-19.35,1.6c2.6,3.69,5.52,7.23,8.69,10.52
			C54.94,172.55,58.53,172.37,62.05,172.37z"/>
		<path class="st1" d="M120.4,199.5c-16.99-12.7-37.13-19.4-58.35-19.4c-0.87,0-1.78,0.02-2.78,0.05
			c15.57,12.63,35.1,19.57,55.18,19.57C116.35,199.72,118.31,199.65,120.4,199.5z"/>
	</g>
</g>
</svg>
