<?xml version="1.0" encoding="utf-8"?>
<!-- Generator: Adobe Illustrator 19.0.0, SVG Export Plug-In . SVG Version: 6.00 Build 0)  -->
<svg version="1.1" id="Layer_1" xmlns="http://www.w3.org/2000/svg" xmlns:xlink="http://www.w3.org/1999/xlink" x="0px" y="0px"
	 viewBox="442 150.4 300 200" style="enable-background:new 442 150.4 300 200;" xml:space="preserve">
<style type="text/css">
	.st0{display:none;fill:none;stroke:#898B8E;stroke-width:2;stroke-linecap:square;stroke-linejoin:round;stroke-miterlimit:10;}
	.st1{display:none;}
	.st2{display:inline;}
	.st3{fill:none;stroke:#898B8E;stroke-width:3;stroke-linecap:round;stroke-linejoin:round;stroke-miterlimit:10;}
	.st4{fill:none;stroke:#898B8E;stroke-width:3;stroke-linecap:square;stroke-linejoin:round;stroke-miterlimit:10;}
	.st5{fill:none;stroke:#898B8E;stroke-width:2;stroke-linecap:round;stroke-linejoin:round;stroke-miterlimit:10;}
	.st6{fill:none;stroke:#898B8E;stroke-width:8;stroke-linecap:round;stroke-linejoin:round;stroke-miterlimit:10;}
	
		.st7{fill:none;stroke:#898B8E;stroke-width:4;stroke-linecap:square;stroke-linejoin:round;stroke-miterlimit:10;stroke-dasharray:15,10;}
	.st8{fill:none;stroke:#898B8E;stroke-width:2;stroke-linecap:square;stroke-linejoin:round;stroke-miterlimit:10;}
	.st9{fill:#293C98;}
	.st10{fill:#FFFFFF;}
	.st11{fill:#D03439;}
	.st12{fill:#702877;}
	.st13{fill:#F0F9FF;}
	.st14{fill:#E1F1FF;}
	.st15{fill:#5168A8;}
	.st16{fill:#D03439;stroke:#D03439;stroke-width:0.5;stroke-miterlimit:10;}
	.st17{fill:none;stroke:#E1F1FF;stroke-width:9.1206;stroke-miterlimit:10;}
	.st18{fill:#616366;}
</style>
<g id="INFORMATION">
	<g id="XMLID_757_">
		<g id="XMLID_130_">
			<line id="XMLID_10_" class="st0" x1="1392.2" y1="436.2" x2="1340.8" y2="81.5"/>
			<line id="XMLID_11_" class="st0" x1="1385.2" y1="435.2" x2="1333.8" y2="80.5"/>
		</g>
	</g>
</g>
<g id="FLATTENED_1_">
	<g id="_x32__original" class="st1">
		<g id="XMLID_102_" class="st2">
			<path id="XMLID_324_" class="st3" d="M2430.2,30"/>
			<path id="XMLID_288_" class="st3" d="M2374.4,416.6"/>
			<path id="XMLID_287_" class="st3" d="M2374.4,416.6"/>
			<path id="XMLID_286_" class="st3" d="M2625.5,255.9"/>
			<path id="XMLID_285_" class="st3" d="M2430.2,30"/>
			<path id="XMLID_281_" class="st3" d="M2625.5,255.9"/>
			<path id="XMLID_280_" class="st3" d="M2430.2,30"/>
			<path id="XMLID_279_" class="st3" d="M2536.7,61.6"/>
			<line id="XMLID_278_" class="st3" x1="2430.2" y1="30" x2="2323.1" y2="61.6"/>
			<line id="XMLID_277_" class="st3" x1="2485.4" y1="416.6" x2="2578.4" y2="355.7"/>
			<path id="XMLID_276_" class="st4" d="M2374.4,416.6"/>
			<path id="XMLID_275_" class="st4" d="M2536.7,61.6"/>
			<path id="XMLID_267_" class="st3" d="M2430.2,30"/>
			<path id="XMLID_261_" class="st3" d="M2485.4,416.6"/>
			<path id="XMLID_260_" class="st5" d="M2250.8,145.2"/>
			<path id="XMLID_259_" class="st5" d="M2578.4,355.7"/>
			<line id="XMLID_258_" class="st4" x1="2323.1" y1="61.6" x2="2280.7" y2="355.7"/>
			<path id="XMLID_257_" class="st4" d="M2280.7,355.7"/>
			<path id="XMLID_256_" class="st4" d="M2609.8,145.2"/>
			<path id="XMLID_255_" class="st3" d="M2280.7,355.7"/>
			<path id="XMLID_254_" class="st3" d="M2374.4,416.6"/>
			<line id="XMLID_253_" class="st6" x1="2323.1" y1="61.6" x2="2536.7" y2="61.6"/>
			<line id="XMLID_214_" class="st6" x1="2323.1" y1="61.6" x2="2250.8" y2="145.2"/>
			<line id="XMLID_213_" class="st6" x1="2250.8" y1="145.2" x2="2625.5" y2="255.9"/>
			<line id="XMLID_212_" class="st6" x1="2625.5" y1="255.9" x2="2578.4" y2="355.7"/>
			<line id="XMLID_211_" class="st6" x1="2578.4" y1="355.7" x2="2280.7" y2="355.7"/>
			<path id="XMLID_210_" class="st5" d="M2233.9,254.2"/>
			<path id="XMLID_209_" class="st5" d="M2535.7,60"/>
			<path id="XMLID_208_" class="st5" d="M2237.1,256.5"/>
			<path id="XMLID_207_" class="st5" d="M2538.8,62.2"/>
			<path id="XMLID_197_" class="st5" d="M2233.4,253.9"/>
			<path id="XMLID_196_" class="st5" d="M2577.7,355"/>
			<path id="XMLID_195_" class="st5" d="M2233.8,257.8"/>
			<path id="XMLID_194_" class="st5" d="M2578.1,358.9"/>
			<path id="XMLID_193_" class="st5" d="M2540,61.8"/>
			<path id="XMLID_192_" class="st5" d="M2581.1,357.6"/>
			<path id="XMLID_191_" class="st5" d="M2536.7,63.8"/>
			<path id="XMLID_190_" class="st5" d="M2577.8,359.6"/>
			<line id="XMLID_189_" class="st3" x1="2485.4" y1="416.6" x2="2374.4" y2="416.6"/>
			<path id="XMLID_188_" class="st3" d="M2234.9,255.9"/>
			<path id="XMLID_187_" class="st3" d="M2609.8,145.2"/>
			<line id="XMLID_186_" class="st7" x1="2376.7" y1="257.8" x2="2250.8" y2="145.2"/>
			<line id="XMLID_185_" class="st7" x1="2376.7" y1="257.8" x2="2536.7" y2="61.6"/>
			<line id="XMLID_181_" class="st7" x1="2376.7" y1="257.8" x2="2374.4" y2="416.6"/>
			<path id="XMLID_171_" class="st4" d="M2609.8,145.2"/>
			<path id="XMLID_170_" class="st4" d="M2376.7,257.8"/>
			<line id="XMLID_129_" class="st4" x1="2376.7" y1="257.8" x2="2280.7" y2="355.7"/>
			<path id="XMLID_128_" class="st4" d="M2323.1,61.6"/>
			<path id="XMLID_127_" class="st4" d="M2625.5,255.9"/>
			<path id="XMLID_126_" class="st4" d="M2250.8,145.2"/>
			<path id="XMLID_125_" class="st4" d="M2577.7,355"/>
			<line id="XMLID_124_" class="st4" x1="2609.8" y1="145.2" x2="2234.9" y2="255.9"/>
			<line id="XMLID_123_" class="st8" x1="2606.8" y1="144.2" x2="2371.4" y2="415.6"/>
			<line id="XMLID_122_" class="st8" x1="2610.8" y1="150.2" x2="2375.4" y2="421.6"/>
			<line id="XMLID_121_" class="st4" x1="2485.4" y1="416.6" x2="2430.2" y2="30"/>
			<line id="XMLID_120_" class="st4" x1="2625.5" y1="255.9" x2="2609.8" y2="145.2"/>
			<path id="XMLID_119_" class="st8" d="M2252.8,148.2"/>
			<path id="XMLID_118_" class="st8" d="M2432.2,33"/>
			<path id="XMLID_117_" class="st8" d="M2247.8,143.2"/>
			<path id="XMLID_116_" class="st8" d="M2427.2,28"/>
			<line id="XMLID_115_" class="st4" x1="2376.7" y1="416.6" x2="2578.4" y2="355.7"/>
			<line id="XMLID_114_" class="st6" x1="2536.7" y1="61.6" x2="2609.8" y2="145.2"/>
			<line id="XMLID_113_" class="st6" x1="2280.7" y1="355.7" x2="2237.1" y2="256.5"/>
			<line id="XMLID_109_" class="st4" x1="2578.4" y1="355.7" x2="2376.7" y2="257.8"/>
			<line id="XMLID_108_" class="st4" x1="2376.7" y1="257.8" x2="2430.2" y2="30"/>
			<line id="XMLID_107_" class="st8" x1="2609.8" y1="148.2" x2="2323.1" y2="64.6"/>
			<line id="XMLID_106_" class="st8" x1="2612.8" y1="142.2" x2="2326.1" y2="58.6"/>
			<line id="XMLID_105_" class="st0" x1="2378.4" y1="416.6" x2="2326.9" y2="61.8"/>
			<line id="XMLID_104_" class="st0" x1="2371.4" y1="415.6" x2="2319.9" y2="60.8"/>
		</g>
		<g id="XMLID_53_" class="st2">
			<g id="XMLID_100_">
				<path id="XMLID_408_" class="st9" d="M2625.5,285.5c-16.3,0-29.6-13.3-29.6-29.6s13.3-29.6,29.6-29.6s29.6,13.3,29.6,29.6
					S2641.9,285.5,2625.5,285.5z"/>
				<path id="XMLID_405_" class="st10" d="M2625.5,227.3c15.8,0,28.6,12.8,28.6,28.6c0,15.8-12.8,28.6-28.6,28.6
					s-28.6-12.8-28.6-28.6S2609.7,227.3,2625.5,227.3 M2625.5,225.3c-16.9,0-30.6,13.7-30.6,30.6s13.7,30.6,30.6,30.6
					s30.6-13.7,30.6-30.6S2642.4,225.3,2625.5,225.3L2625.5,225.3z"/>
			</g>
			<g id="XMLID_99_">
				<path id="XMLID_403_" class="st9" d="M2374.4,439.4c-12.6,0-22.8-10.2-22.8-22.8s10.2-22.8,22.8-22.8s22.8,10.2,22.8,22.8
					S2387,439.4,2374.4,439.4z"/>
				<path id="XMLID_400_" class="st10" d="M2374.4,394.7c12.1,0,21.8,9.8,21.8,21.8s-9.8,21.8-21.8,21.8c-12.1,0-21.8-9.8-21.8-21.8
					S2362.3,394.7,2374.4,394.7 M2374.4,392.7c-13.1,0-23.8,10.7-23.8,23.8s10.7,23.8,23.8,23.8s23.8-10.7,23.8-23.8
					S2387.5,392.7,2374.4,392.7L2374.4,392.7z"/>
			</g>
			<g id="XMLID_98_">
				<path id="XMLID_398_" class="st9" d="M2578.4,372.6c-9.3,0-16.9-7.6-16.9-16.9s7.6-16.9,16.9-16.9s16.9,7.6,16.9,16.9
					C2595.3,365,2587.7,372.6,2578.4,372.6z"/>
				<path id="XMLID_395_" class="st10" d="M2578.4,339.9c8.8,0,15.9,7.1,15.9,15.9s-7.1,15.9-15.9,15.9c-8.8,0-15.9-7.1-15.9-15.9
					S2569.6,339.9,2578.4,339.9 M2578.4,337.9c-9.8,0-17.9,8-17.9,17.9s8,17.9,17.9,17.9s17.9-8,17.9-17.9
					S2588.3,337.9,2578.4,337.9L2578.4,337.9z"/>
			</g>
			<g id="XMLID_97_">
				<path id="XMLID_393_" class="st11" d="M2280.7,372.6c-9.3,0-16.9-7.6-16.9-16.9s7.6-16.9,16.9-16.9s16.9,7.6,16.9,16.9
					C2297.6,365,2290,372.6,2280.7,372.6z"/>
				<path id="XMLID_390_" class="st10" d="M2280.7,339.9c8.8,0,15.9,7.1,15.9,15.9s-7.1,15.9-15.9,15.9c-8.8,0-15.9-7.1-15.9-15.9
					S2272,339.9,2280.7,339.9 M2280.7,337.9c-9.8,0-17.9,8-17.9,17.9s8,17.9,17.9,17.9c9.8,0,17.9-8,17.9-17.9
					S2290.6,337.9,2280.7,337.9L2280.7,337.9z"/>
			</g>
			<g id="XMLID_96_">
				<path id="XMLID_388_" class="st11" d="M2536.7,78.5c-9.3,0-16.9-7.6-16.9-16.9s7.6-16.9,16.9-16.9s16.9,7.6,16.9,16.9
					C2553.5,70.9,2546,78.5,2536.7,78.5z"/>
				<path id="XMLID_385_" class="st10" d="M2536.7,45.8c8.8,0,15.9,7.1,15.9,15.9s-7.1,15.9-15.9,15.9c-8.8,0-15.9-7.1-15.9-15.9
					S2527.9,45.8,2536.7,45.8 M2536.7,43.8c-9.8,0-17.9,8-17.9,17.9s8,17.9,17.9,17.9c9.8,0,17.9-8,17.9-17.9
					S2546.5,43.8,2536.7,43.8L2536.7,43.8z"/>
			</g>
			<g id="XMLID_95_">
				<path id="XMLID_383_" class="st9" d="M2250.8,162c-9.3,0-16.9-7.6-16.9-16.9c0-9.3,7.6-16.9,16.9-16.9s16.9,7.6,16.9,16.9
					C2267.6,154.5,2260.1,162,2250.8,162z"/>
				<path id="XMLID_380_" class="st10" d="M2250.8,129.3c8.8,0,15.9,7.1,15.9,15.9c0,8.8-7.1,15.9-15.9,15.9s-15.9-7.1-15.9-15.9
					C2234.9,136.4,2242,129.3,2250.8,129.3 M2250.8,127.3c-9.8,0-17.9,8-17.9,17.9s8,17.9,17.9,17.9s17.9-8,17.9-17.9
					S2260.6,127.3,2250.8,127.3L2250.8,127.3z"/>
			</g>
			<g id="XMLID_94_">
				<path id="XMLID_378_" class="st11" d="M2609.8,159c-7.7,0-13.9-6.2-13.9-13.9s6.2-13.9,13.9-13.9s13.9,6.2,13.9,13.9
					S2617.4,159,2609.8,159z"/>
				<path id="XMLID_375_" class="st10" d="M2609.8,132.3c7.1,0,12.9,5.8,12.9,12.9c0,7.1-5.8,12.9-12.9,12.9
					c-7.1,0-12.9-5.8-12.9-12.9C2596.9,138,2602.7,132.3,2609.8,132.3 M2609.8,130.3c-8.2,0-14.9,6.7-14.9,14.9s6.7,14.9,14.9,14.9
					s14.9-6.7,14.9-14.9C2624.6,137,2618,130.3,2609.8,130.3L2609.8,130.3z"/>
			</g>
			<g id="XMLID_93_">
				<path id="XMLID_373_" class="st11" d="M2485.4,429.3c-7,0-12.8-5.7-12.8-12.8s5.7-12.8,12.8-12.8c7,0,12.8,5.7,12.8,12.8
					S2492.4,429.3,2485.4,429.3z"/>
				<path id="XMLID_370_" class="st10" d="M2485.4,404.8c6.5,0,11.8,5.3,11.8,11.8s-5.3,11.8-11.8,11.8s-11.8-5.3-11.8-11.8
					C2473.6,410.1,2478.9,404.8,2485.4,404.8 M2485.4,402.8c-7.6,0-13.8,6.2-13.8,13.8s6.2,13.8,13.8,13.8s13.8-6.2,13.8-13.8
					S2492.9,402.8,2485.4,402.8L2485.4,402.8z"/>
			</g>
			<g id="XMLID_91_">
				<path id="XMLID_368_" class="st9" d="M2430.2,42.7c-7,0-12.8-5.7-12.8-12.8s5.7-12.8,12.8-12.8c7,0,12.8,5.7,12.8,12.8
					S2437.3,42.7,2430.2,42.7z"/>
				<path id="XMLID_365_" class="st10" d="M2430.2,18.2c6.5,0,11.8,5.3,11.8,11.8s-5.3,11.8-11.8,11.8s-11.8-5.3-11.8-11.8
					S2423.7,18.2,2430.2,18.2 M2430.2,16.2c-7.6,0-13.8,6.2-13.8,13.8c0,7.6,6.2,13.8,13.8,13.8S2444,37.6,2444,30
					S2437.8,16.2,2430.2,16.2L2430.2,16.2z"/>
			</g>
			<g id="XMLID_61_">
				<path id="XMLID_363_" class="st11" d="M2323.1,71.7c-5.6,0-10.1-4.5-10.1-10.1s4.5-10.1,10.1-10.1s10.1,4.5,10.1,10.1
					S2328.7,71.7,2323.1,71.7z"/>
				<path id="XMLID_360_" class="st10" d="M2323.1,52.5c5,0,9.1,4.1,9.1,9.1s-4.1,9.1-9.1,9.1s-9.1-4.1-9.1-9.1
					S2318.1,52.5,2323.1,52.5 M2323.1,50.5c-6.1,0-11.1,5-11.1,11.1s5,11.1,11.1,11.1s11.1-5,11.1-11.1S2329.2,50.5,2323.1,50.5
					L2323.1,50.5z"/>
			</g>
			<g id="XMLID_60_">
				<path id="XMLID_358_" class="st11" d="M2234.9,266c-5.6,0-10.1-4.5-10.1-10.1s4.5-10.1,10.1-10.1s10.1,4.5,10.1,10.1
					S2240.5,266,2234.9,266z"/>
				<path id="XMLID_355_" class="st10" d="M2234.9,246.8c5,0,9.1,4.1,9.1,9.1s-4.1,9.1-9.1,9.1s-9.1-4.1-9.1-9.1
					C2225.8,250.9,2229.9,246.8,2234.9,246.8 M2234.9,244.8c-6.1,0-11.1,5-11.1,11.1s5,11.1,11.1,11.1s11.1-5,11.1-11.1
					S2241,244.8,2234.9,244.8L2234.9,244.8z"/>
			</g>
			<g id="XMLID_55_">
				<path id="XMLID_353_" class="st12" d="M2376.7,274.7c-9.3,0-16.9-7.6-16.9-16.9s7.6-16.9,16.9-16.9s16.9,7.6,16.9,16.9
					C2393.5,267.1,2386,274.7,2376.7,274.7z"/>
				<path id="XMLID_350_" class="st10" d="M2376.7,241.9c8.8,0,15.9,7.1,15.9,15.9s-7.1,15.9-15.9,15.9c-8.8,0-15.9-7.1-15.9-15.9
					S2367.9,241.9,2376.7,241.9 M2376.7,239.9c-9.8,0-17.9,8-17.9,17.9s8,17.9,17.9,17.9c9.8,0,17.9-8,17.9-17.9
					S2386.5,239.9,2376.7,239.9L2376.7,239.9z"/>
			</g>
		</g>
	</g>
	<g id="_x32__outlined">
		<g id="XMLID_508_">
			<line id="XMLID_510_" class="st0" x1="2378.4" y1="416.6" x2="2326.9" y2="61.8"/>
			<line id="XMLID_509_" class="st0" x1="2371.4" y1="415.6" x2="2319.9" y2="60.8"/>
		</g>
	</g>
</g>
<g id="BLACK_ONLY" class="st1">
</g>
<g id="GREYSCALE" class="st1">
</g>
<path class="st1" d="M297.2,315.3v1.8c-2.3,0.4-4,1.1-5.2,2.2c-1.7,1.5-3.2,3.9-4.5,7.1L265.2,381h-1.8l-24.1-55.4
	c-1.2-2.8-2.1-4.6-2.6-5.2c-0.8-1-1.8-1.7-2.9-2.3c-1.2-0.6-2.7-0.9-4.7-1.1v-1.8h26.2v1.8c-3,0.3-4.9,0.8-5.8,1.5
	c-0.9,0.7-1.3,1.7-1.3,2.8c0,1.6,0.7,4,2.2,7.4l16.3,37.7l15.2-37.2c1.5-3.7,2.2-6.2,2.2-7.6c0-0.9-0.5-1.8-1.4-2.6
	c-0.9-0.8-2.5-1.4-4.6-1.8c-0.2,0-0.4-0.1-0.8-0.1v-1.8H297.2z"/>
<path class="st1" d="M310.2,334.9c6.6,0,11.8,2.5,15.8,7.5c3.4,4.3,5.1,9.2,5.1,14.7c0,3.9-0.9,7.8-2.8,11.8c-1.9,4-4.4,7-7.7,9
	c-3.3,2-6.9,3-10.9,3c-6.5,0-11.7-2.6-15.6-7.8c-3.3-4.4-4.9-9.3-4.9-14.8c0-4,1-7.9,3-11.9c2-3.9,4.6-6.8,7.8-8.7
	C303.1,335.8,306.6,334.9,310.2,334.9z M308.7,338c-1.7,0-3.4,0.5-5,1.5c-1.7,1-3.1,2.7-4.1,5.2c-1,2.5-1.6,5.7-1.6,9.6
	c0,6.3,1.3,11.8,3.8,16.3c2.5,4.6,5.8,6.9,9.9,6.9c3.1,0,5.6-1.3,7.6-3.8c2-2.5,3-6.9,3-13c0-7.7-1.7-13.8-5-18.2
	C315,339.5,312.2,338,308.7,338z"/>
<path class="st1" d="M374.3,363.1c-1.2,5.7-3.5,10.1-6.9,13.2c-3.4,3.1-7.2,4.6-11.3,4.6c-4.9,0-9.2-2.1-12.9-6.2
	c-3.7-4.1-5.5-9.7-5.5-16.8c0-6.8,2-12.4,6.1-16.6c4.1-4.3,8.9-6.4,14.6-6.4c4.3,0,7.8,1.1,10.5,3.4c2.7,2.3,4.1,4.6,4.1,7
	c0,1.2-0.4,2.2-1.2,2.9c-0.8,0.7-1.9,1.1-3.2,1.1c-1.9,0-3.3-0.6-4.2-1.8c-0.5-0.7-0.9-1.9-1.1-3.8c-0.2-1.9-0.8-3.3-1.9-4.3
	c-1.1-0.9-2.6-1.4-4.6-1.4c-3.2,0-5.7,1.2-7.6,3.5c-2.6,3.1-3.8,7.2-3.8,12.3c0,5.2,1.3,9.8,3.8,13.7c2.5,4,6,5.9,10.3,5.9
	c3.1,0,5.9-1.1,8.3-3.2c1.7-1.5,3.4-4.1,5.1-7.9L374.3,363.1z"/>
<rect x="295.7" y="324.4" class="st1" width="30.8" height="6.2"/>
<g>
	<g>
		<path class="st11" d="M506.1,207.4v1.3c-1.7,0.3-3,0.8-3.9,1.6c-1.3,1.2-2.4,2.9-3.3,5.3l-16.7,40.8h-1.3l-18-41.4
			c-0.9-2.1-1.6-3.4-1.9-3.9c-0.6-0.7-1.3-1.3-2.2-1.7c-0.9-0.4-2-0.7-3.5-0.8v-1.3h19.6v1.3c-2.2,0.2-3.7,0.6-4.3,1.1
			c-0.7,0.5-1,1.2-1,2.1c0,1.2,0.5,3,1.6,5.5l12.2,28.1l11.3-27.8c1.1-2.7,1.7-4.6,1.7-5.7c0-0.7-0.3-1.3-1-2
			c-0.7-0.6-1.8-1.1-3.5-1.3c-0.1,0-0.3-0.1-0.6-0.1v-1.3H506.1z"/>
		<path class="st11" d="M516.5,222.1c4.9,0,8.8,1.9,11.8,5.6c2.5,3.2,3.8,6.8,3.8,11c0,2.9-0.7,5.8-2.1,8.8c-1.4,3-3.3,5.2-5.7,6.7
			c-2.4,1.5-5.2,2.3-8.2,2.3c-4.9,0-8.8-1.9-11.6-5.8c-2.4-3.3-3.6-7-3.6-11c0-3,0.7-5.9,2.2-8.9c1.5-2.9,3.4-5.1,5.8-6.5
			C511.3,222.8,513.8,222.1,516.5,222.1z M515.4,224.4c-1.2,0-2.5,0.4-3.8,1.1c-1.3,0.7-2.3,2-3.1,3.9c-0.8,1.9-1.2,4.3-1.2,7.2
			c0,4.7,0.9,8.8,2.8,12.2c1.9,3.4,4.3,5.1,7.4,5.1c2.3,0,4.2-0.9,5.7-2.8c1.5-1.9,2.2-5.1,2.2-9.7c0-5.8-1.2-10.3-3.7-13.6
			C520.2,225.6,518,224.4,515.4,224.4z"/>
		<rect x="505" y="217.6" class="st11" width="23" height="2.6"/>
	</g>
	<circle class="st13" cx="655.5" cy="233.6" r="69.5"/>
	<g>
		<g>
			<path class="st14" d="M655.5,173.2c33.3,0,60.4,27.1,60.4,60.4S688.8,294,655.5,294c-33.3,0-60.4-27.1-60.4-60.4
				S622.3,173.2,655.5,173.2 M655.5,164.1c-38.4,0-69.5,31.1-69.5,69.5s31.1,69.5,69.5,69.5c38.4,0,69.5-31.1,69.5-69.5
				S693.9,164.1,655.5,164.1L655.5,164.1z"/>
		</g>
	</g>
	<g>
		<path class="st9" d="M655.5,307.1c-40.3,0-73.1-32.8-73.1-73.1s32.8-73.1,73.1-73.1c40.3,0,73.1,32.8,73.1,73.1
			S695.9,307.1,655.5,307.1z M655.5,168.1c-36.3,0-65.9,29.6-65.9,65.9s29.6,65.9,65.9,65.9c36.3,0,65.9-29.6,65.9-65.9
			S691.9,168.1,655.5,168.1z"/>
		<path class="st9" d="M548.8,325.4l50.1-46.5c1.3-1.3,3.5-1.3,4.9,0l5.9,5.9c1.3,1.3,1.3,3.5,0,4.9l-46.5,50.1"/>
		<path class="st15" d="M548.8,325.4l49.5-45.9c1.3,1.3,2,2.6,0.6,3.9l-46,46"/>
	</g>
	<circle class="st12" cx="573.5" cy="238.4" r="3.4"/>
	<g>
		<path class="st16" d="M548.6,256.9c-3.9,0-7-1.8-9.6-5.5c-2.4-3.4-3.5-7.5-3.5-12.2c0-4.7,1.2-8.8,3.5-12.2
			c2.5-3.7,5.7-5.5,9.6-5.5c2.8,0,5.4,1,7.8,3c2.1,1.7,3.4,3.7,4.2,6v-8.9h2v12.8h-2.5c-2-4.1-5.8-6.1-11.3-6.1
			c-3.3,0-5.9,0.9-8,2.6c-2.2,1.9-3.4,4.7-3.4,8.3c0,3.6,1.1,6.4,3.4,8.3c2,1.8,4.7,2.7,8,2.7c5.5,0,9.3-2,11.3-6.1h2.5v12.8h-2V248
			c-0.7,2.3-2.1,4.3-4.2,6C554.1,255.9,551.5,256.9,548.6,256.9z"/>
	</g>
	<circle class="st10" cx="635.2" cy="196" r="11.4"/>
	<path class="st17" d="M599,278.9"/>
	<g>
		<g>
			<g>
				<path class="st18" d="M605.4,232.6c0,6.1,0,9.2,0.2,15.2c0.1,3.2,0.4,5.2,0.9,6.1c0.7,1.2,1.8,2,3.3,2.2
					c0.6,0.1,0.9,0.2,1.6,0.3c0,0.6,0,0.8,0.1,1.4c-7.2-1.1-10-1.9-14.3-3.3c0-0.5,0-0.7,0-1.2c0.4,0.1,0.6,0.2,1,0.3
					c1.1,0.3,2-0.1,2.5-1.3c0.3-0.7,0.4-2.4,0.3-5.2c-0.2-10.7-0.2-21.4,0.1-32.1c0.1-3.1-0.1-4.9-0.4-5.5c-0.5-0.9-1.3-1.1-2.3-0.8
					c-0.4,0.1-0.6,0.2-1,0.3c0-0.5,0-0.7,0.1-1.2c3.7-1.3,6.1-2,11.9-3.1c3.6-0.7,6.7-0.7,9.1-0.1c2.3,0.6,4.3,2,6,4.2
					c1.7,2.2,2.5,5.1,2.4,8.6c-0.2,4.7-1.8,8.8-4.5,11.8c-2.7,3.1-6.3,4.5-10.4,4.5c-1,0-2-0.1-3.1-0.3
					C607.7,233.2,606.6,233,605.4,232.6z M605.4,230.4c0.9,0.2,1.8,0.4,2.5,0.5c0.8,0.1,1.4,0.2,2,0.2c2,0,3.9-1.1,5.6-3.4
					c1.7-2.3,2.6-5.3,2.7-8.8c0.1-2.4-0.2-4.6-1-6.6c-0.7-1.9-1.8-3.3-3.1-4c-1.3-0.7-2.9-1-4.5-0.7c-1,0.2-2.3,0.6-3.8,1.4
					C605.2,217,605.5,221.6,605.4,230.4z"/>
				<path class="st18" d="M644,218.6c-0.1,3.7-0.1,5.6-0.1,9.3c3.5-6.3,7.1-9.4,10.8-9.4c1.7,0,3.1,0.5,4.2,1.5
					c1.1,1,1.7,2.2,1.7,3.5c0,1.2-0.4,2.2-1.2,3c-0.8,0.8-1.7,1.2-2.8,1.2c-1.1,0-2.3-0.5-3.6-1.6c-1.3-1.1-2.3-1.6-3-1.6
					c-0.5,0-1.1,0.3-1.8,0.9c-1.4,1.3-2.8,3.3-4.3,6.2c0,8,0,12.1,0.2,19.8c0,2.2,0.4,3.8,1,5c0.4,0.8,1.1,1.4,2.1,1.9
					c1,0.5,2.4,0.8,4.2,0.8c0,0.6,0,0.9,0,1.5c-8.3-0.1-12.5-0.2-20.1-0.7c0-0.6-0.1-0.9-0.1-1.4c1.9,0.1,3.3-0.1,4.3-0.6
					c0.7-0.4,1.1-1.1,1.4-2c0.1-0.5,0.1-1.8,0.1-4.1c-0.2-6.1-0.3-9.3-0.3-15.8c0-4.8-0.1-7.7-0.3-8.6c-0.2-0.9-0.5-1.6-1-2
					c-0.5-0.4-1.1-0.6-1.9-0.6c-0.9,0-1.9,0.3-3,0.7c-0.2-0.6-0.2-1-0.4-1.6c4.6-2.1,7.1-3.1,12.1-5.2
					C642.9,218.6,643.3,218.6,644,218.6z"/>
				<path class="st18" d="M692.6,253c-2.3,2.6-4.5,4.5-6.5,5.7c-2.4,1.4-5.2,2.3-8.3,2.4c-3.7,0.2-7-0.5-9.9-2.3
					c-3.2-2-4.9-5-4.9-8.8c0.1-4.7,3.9-8.3,11.1-10.7c-5.7-2-8.8-5.3-8.8-9.6c0-3.8,1.9-6.7,5.6-8.7c3-1.6,6.4-2.3,10.2-2.1
					c2.8,0.1,5.3,0.7,7.4,1.6c2.9,1.4,4.3,3.2,4.3,5.6c0,1-0.3,1.8-0.9,2.5c-0.6,0.7-1.3,1.1-2.1,1.1c-1.3,0-2.5-1.2-3.4-3.5
					c-1.3-3.2-3.3-4.8-6.1-4.9c-2.4-0.1-4.3,0.7-5.7,2.4c-1.3,1.6-2,3.7-2,6.3c0,5.5,2.8,8.3,8.1,8.2c0.5,0,1.1-0.1,1.9-0.2
					c1.2-0.2,2.1-0.3,2.8-0.3c1.6,0,2.3,0.5,2.3,1.5c0,1.1-0.8,1.7-2.4,1.8c-0.7,0-1.5-0.1-2.6-0.2c-1-0.2-1.7-0.2-2.1-0.2
					c-5.6,0.1-8.6,3.3-8.8,9.2c-0.1,2.6,0.6,4.6,2,6.2c1.4,1.6,3.3,2.3,5.7,2.1c4-0.3,8.2-2.3,12.1-6.1
					C692.1,252.5,692.3,252.7,692.6,253z"/>
				<path class="st18" d="M715.8,244.4c-0.1,3.7-0.2,5.6-0.3,9.3c-5,2-9,3.1-19.7,4.6c0.1-0.5,0.1-0.8,0.1-1.4
					c6.1-10.4,11.8-20.7,16.3-31.8c-2.3-0.3-3.7-0.4-6.8-0.6c-1.7-0.1-2.9-0.1-3.4,0.2c-0.6,0.3-1,0.9-1.4,1.8c-0.5,1.3-0.8,3-0.9,5
					c-0.5,0-0.7,0-1.2,0c0.1-4.2,0.1-6.3,0-10.4c9.5,0.8,13,1.2,17.5,2.1c0,0.5,0,0.7,0,1.2c-3.5,10.3-8,20.8-13.3,30.2
					c3.8-0.7,5.4-1,8.2-1.7c1.5-0.4,2.3-0.9,2.8-1.4c0.5-0.5,0.8-1.3,1.1-2.4c0.2-0.8,0.4-2.3,0.5-4.6
					C715.5,244.5,715.6,244.5,715.8,244.4z"/>
				<path class="st12" d="M691.2,266.7c-19.5,3.5-39.9,2.5-59.6,1.5c-0.1-1.2-0.2-1.8-0.3-3.1c20,1,40.5,1.8,60.4-1.4
					C691.5,264.9,691.4,265.5,691.2,266.7z"/>
			</g>
		</g>
	</g>
</g>
</svg>
