<?xml version="1.0" encoding="UTF-8" standalone="no"?>
<!DOCTYPE svg PUBLIC "-//W3C//DTD SVG 1.1//EN" "http://www.w3.org/Graphics/SVG/1.1/DTD/svg11.dtd">
<!-- Generated by Microsoft Visio, SVG Export system.svg Page-1 -->
<svg xmlns="http://www.w3.org/2000/svg" xmlns:xlink="http://www.w3.org/1999/xlink" xmlns:ev="http://www.w3.org/2001/xml-events"
		xmlns:v="http://schemas.microsoft.com/visio/2003/SVGExtensions/" width="6.85039in" height="5.86614in"
		viewBox="0 0 493.228 422.362" xml:space="preserve" color-interpolation-filters="sRGB" class="st21">
	<v:documentProperties v:langID="1033" v:metric="true" v:viewMarkup="false">
		<v:userDefs>
			<v:ud v:nameU="msvSubprocessMaster" v:prompt="" v:val="VT4(Rectangle)"/>
			<v:ud v:nameU="msvNoAutoConnect" v:val="VT0(1):26"/>
		</v:userDefs>
	</v:documentProperties>

	<style type="text/css">
	<![CDATA[
		.st1 {fill:#ffffff;stroke:#000000;stroke-width:1}
		.st2 {fill:#000000;font-family:Calibri;font-size:0.833336em}
		.st3 {fill:#000000}
		.st4 {fill:#ffffff;stroke:none;stroke-width:0.25}
		.st5 {fill:#000000;font-family:Calibri;font-size:1.00001em}
		.st6 {font-size:1em}
		.st7 {marker-end:url(#mrkr4-34);marker-start:url(#mrkr4-32);stroke:#000000;stroke-linecap:round;stroke-linejoin:round;stroke-width:1}
		.st8 {fill:#000000;fill-opacity:1;stroke:#000000;stroke-opacity:1;stroke-width:0.28409090909091}
		.st9 {fill:none;stroke:#000000;stroke-dasharray:7,5;stroke-width:1}
		.st10 {fill:#c00000;stroke:#c8c8c8;stroke-width:0.25}
		.st11 {stroke:#c00000;stroke-linecap:round;stroke-linejoin:round;stroke-width:1}
		.st12 {fill:#ffffff;stroke:#c00000;stroke-width:1}
		.st13 {fill:#c00000;font-family:Calibri;font-size:1.16666em}
		.st14 {fill:#c00000;stroke:#ffffff;stroke-width:0.25}
		.st15 {fill:#ffffff;stroke:#ffffff;stroke-width:0.25}
		.st16 {fill:#c00000;font-family:Calibri;font-size:1.00001em}
		.st17 {fill:#ffffff;stroke:#000000;stroke-dasharray:7,5;stroke-width:1}
		.st18 {marker-start:url(#mrkr4-32);stroke:#000000;stroke-dasharray:7,5;stroke-linecap:round;stroke-linejoin:round;stroke-width:1}
		.st19 {fill:#000000;stroke:#c8c8c8;stroke-width:0.25}
		.st20 {stroke:#000000;stroke-linecap:round;stroke-linejoin:round;stroke-width:1}
		.st21 {fill:none;fill-rule:evenodd;font-size:12px;overflow:visible;stroke-linecap:square;stroke-miterlimit:3}
	]]>
	</style>

	<defs id="Markers">
		<g id="lend4">
			<path d="M 2 1 L 0 0 L 2 -1 L 2 1 " style="stroke:none"/>
		</g>
		<marker id="mrkr4-32" class="st8" v:arrowType="4" v:arrowSize="2" v:setback="6.68" refX="6.68" orient="auto"
				markerUnits="strokeWidth" overflow="visible">
			<use xlink:href="#lend4" transform="scale(3.52) "/>
		</marker>
		<marker id="mrkr4-34" class="st8" v:arrowType="4" v:arrowSize="2" v:setback="7.04" refX="-7.04" orient="auto"
				markerUnits="strokeWidth" overflow="visible">
			<use xlink:href="#lend4" transform="scale(-3.52,-3.52) "/>
		</marker>
	</defs>
	<g v:mID="0" v:index="1" v:groupContext="foregroundPage">
		<v:userDefs>
			<v:ud v:nameU="msvThemeOrder" v:val="VT0(0):26"/>
		</v:userDefs>
		<title>Page-1</title>
		<v:pageProperties v:drawingScale="0.0393701" v:pageScale="0.0393701" v:drawingUnits="24" v:shadowOffsetX="8.50394"
				v:shadowOffsetY="-8.50394"/>
		<v:layer v:name="Flowchart" v:index="0"/>
		<v:layer v:name="Connector" v:index="1"/>
		<g id="group1-1" transform="translate(41.1024,-54.0365)" v:mID="1" v:groupContext="group">
			<v:userDefs>
				<v:ud v:nameU="visVersion" v:prompt="" v:val="VT0(15):26"/>
			</v:userDefs>
			<title>Can</title>
			<desc>RDF Database</desc>
			<g id="shape2-2" v:mID="2" v:groupContext="shape">
				<title>Sheet.2</title>
				<v:userDefs>
					<v:ud v:nameU="ControlHalfHeight" v:prompt="" v:val="VT0(0.11811023622047):24"/>
					<v:ud v:nameU="FillForegnd" v:prompt="" v:val="VT0(1):26"/>
					<v:ud v:nameU="FillForegnd" v:prompt="" v:val="VT5(#ffffff)"/>
				</v:userDefs>
				<path d="M0 413.86 A42.5197 8.50394 -180 1 0 85.04 413.86 L85.04 345.83 L0 345.83 L0 413.86 Z" class="st1"/>
			</g>
			<g id="shape1-4" v:mID="1" v:groupContext="groupContent">
				<v:textBlock v:margins="rect(4,4,4,4)" v:tabSpace="42.5197"/>
				<v:textRect cx="42.5197" cy="379.843" width="85.04" height="85.0394"/>
				<ellipse cx="42.5197" cy="345.827" rx="42.5197" ry="8.50394" class="st1"/>
				<text x="14.29" y="382.84" class="st2" v:langID="1045"><v:paragraph v:horizAlign="1"/><v:tabList/>RDF Database</text>			</g>
		</g>
		<g id="group4-7" transform="translate(222.52,-117.112)" v:mID="4" v:groupContext="group" v:layerMember="0">
			<v:userDefs>
				<v:ud v:nameU="visVersion" v:prompt="" v:val="VT0(15):26"/>
				<v:ud v:nameU="ConnGap" v:prompt="" v:val="VT0(0.00012908222537757):24"/>
			</v:userDefs>
			<title>Document</title>
			<g id="shape5-8" v:mID="5" v:groupContext="shape" v:layerMember="0">
				<title>Sheet.5</title>
				<path d="M62.36 352.25 L46.86 335.75 L0 335.75 L0 422.36 L62.36 422.36 L62.36 352.25 Z" class="st1"/>
			</g>
			<g id="shape6-10" v:mID="6" v:groupContext="shape" v:layerMember="0" transform="translate(11.3681,-17.4243)">
				<title>Sheet.6</title>
				<v:userDefs>
					<v:ud v:nameU="SurroundingRegionColor" v:prompt="" v:val="VT0(1):26"/>
					<v:ud v:nameU="SurroundingRegionColor" v:prompt="" v:val="VT5(#ffffff)"/>
				</v:userDefs>
				<path d="M23.39 422.36 L39.3 422.36 L39.3 420.16 L23.39 420.16 L23.39 422.36 ZM0 412.04 L39.3 412.04 L39.3 409.84
							 L0 409.84 L0 412.04 ZM0 401.72 L39.3 401.72 L39.3 399.52 L0 399.52 L0 401.72 ZM0 391.4 L39.3 391.4 L39.3
							 389.21 L0 389.21 L0 391.4 ZM0 381.09 L15.92 381.09 L15.92 378.89 L0 378.89 L0 381.09 ZM0 370.77 L15.92
							 370.77 L15.92 368.57 L0 368.57 L0 370.77 ZM35.04 353.75 L35.04 369.72 L50.04 369.72 L35.04 353.75 Z"
						class="st3"/>
			</g>
		</g>
		<g id="shape10-13" v:mID="10" v:groupContext="shape" transform="translate(361.417,-118.097)">
			<title>Rectangle</title>
			<desc>?</desc>
			<v:userDefs>
				<v:ud v:nameU="visVersion" v:val="VT0(15):26"/>
			</v:userDefs>
			<v:textBlock v:margins="rect(4,4,4,4)" v:tabSpace="42.5197"/>
			<v:textRect cx="56.6929" cy="379.843" width="113.39" height="85.0394"/>
			<rect x="0" y="337.323" width="113.386" height="85.0394" class="st1"/>
			<text x="54.38" y="382.84" class="st2" v:langID="1045"><v:paragraph v:horizAlign="1"/><v:tabList/>?</text>		</g>
		<g id="shape23-16" v:mID="23" v:groupContext="shape" transform="translate(345.118,-89.7505)">
			<title>Sheet.23</title>
			<desc>External Vocabulary System</desc>
			<v:textBlock v:margins="rect(4,4,4,4)" v:tabSpace="42.5197"/>
			<v:textRect cx="72.9921" cy="412.362" width="145.99" height="20"/>
			<rect x="0" y="402.362" width="145.984" height="20" class="st4"/>
			<text x="5.31" y="415.96" class="st5" v:langID="1045"><v:paragraph v:horizAlign="1"/><v:tabList/>External Vocabulary System</text>		</g>
		<g id="shape25-19" v:mID="25" v:groupContext="shape" transform="translate(8.50394,-9.29494)">
			<title>Sheet.25</title>
			<desc>Corporate Vocab Management System</desc>
			<v:textBlock v:margins="rect(4,4,4,4)" v:tabSpace="42.5197"/>
			<v:textRect cx="72.9921" cy="412.362" width="145.99" height="20"/>
			<rect x="0" y="402.362" width="145.984" height="20" class="st4"/>
			<text x="31.77" y="408.76" class="st5" v:langID="1045"><v:paragraph v:horizAlign="1"/><v:tabList/>Corporate Vocab <tspan
						x="21.25" dy="1.2em" class="st6">Management System</tspan></text>		</g>
		<g id="shape26-23" v:mID="26" v:groupContext="shape" transform="translate(26.9291,-157.622)">
			<title>Rectangle.26</title>
			<desc>VocBench</desc>
			<v:userDefs>
				<v:ud v:nameU="visVersion" v:val="VT0(15):26"/>
			</v:userDefs>
			<v:textBlock v:margins="rect(4,4,4,4)" v:tabSpace="42.5197"/>
			<v:textRect cx="56.6929" cy="404.784" width="113.39" height="35.1572"/>
			<rect x="0" y="387.205" width="113.386" height="35.1572" class="st1"/>
			<text x="36.53" y="407.78" class="st2" v:langID="1045"><v:paragraph v:horizAlign="1"/><v:tabList/>VocBench</text>		</g>
		<g id="shape33-26" v:mID="33" v:groupContext="shape" v:layerMember="1" transform="translate(76.5354,-157.622)">
			<title>Dynamic connector.33</title>
			<path d="M7.09 429.04 L7.09 429.4 L7.09 433.87" class="st7"/>
		</g>
		<g id="shape34-35" v:mID="34" v:groupContext="shape" transform="translate(15.5906,-41.9721)">
			<title>Rectangle.34</title>
			<v:userDefs>
				<v:ud v:nameU="visVersion" v:val="VT0(15):26"/>
			</v:userDefs>
			<path d="M0 422.36 L138.9 422.36 L138.9 260.79 L0 260.79 L0 422.36 Z" class="st9"/>
		</g>
		<g id="shape44-37" v:mID="44" v:groupContext="shape" transform="translate(139.978,-371.001)">
			<title>Circle.44</title>
			<v:userDefs>
				<v:ud v:nameU="visVersion" v:val="VT0(15):26"/>
			</v:userDefs>
			<path d="M0 413.52 A8.84139 8.84139 0 0 1 17.68 413.52 A8.84139 8.84139 0 1 1 -0 413.52 Z" class="st10"/>
		</g>
		<g id="shape48-39" v:mID="48" v:groupContext="shape" transform="translate(676.063,120.013) rotate(90)">
			<title>Double tree square</title>
			<v:userDefs>
				<v:ud v:nameU="Scale" v:val="VT0(1):26"/>
				<v:ud v:nameU="AntiScale" v:val="VT0(1):26"/>
				<v:ud v:nameU="visVersion" v:val="VT0(15):26"/>
			</v:userDefs>
			<path d="M0 422.36 L87.87 422.36" class="st11"/>
			<path d="M87.87 422.36 L87.87 464.88 L99.21 464.88" class="st11"/>
			<path d="M87.87 422.36 L87.87 379.84 L99.21 379.84" class="st11"/>
		</g>
		<g id="shape50-44" v:mID="50" v:groupContext="shape" transform="translate(69.4488,-302.349)">
			<title>Rectangle.50</title>
			<desc>VocPrez</desc>
			<v:userDefs>
				<v:ud v:nameU="visVersion" v:val="VT0(15):26"/>
			</v:userDefs>
			<v:textBlock v:margins="rect(4,4,4,4)" v:tabSpace="42.5197"/>
			<v:textRect cx="184.252" cy="398.268" width="368.51" height="48.189"/>
			<rect x="0" y="374.173" width="368.504" height="48.189" class="st12"/>
			<text x="161.32" y="402.47" class="st13" v:langID="1045"><v:paragraph v:horizAlign="1"/><v:tabList/>VocPrez</text>		</g>
		<g id="group70-47" transform="translate(432.283,543.139) rotate(180)" v:mID="70" v:groupContext="group">
			<title>Sheet.70</title>
			<g id="shape58-48" v:mID="58" v:groupContext="shape" transform="translate(-7.99361E-15,-23.663)">
				<title>Circle</title>
				<v:userDefs>
					<v:ud v:nameU="visVersion" v:val="VT0(15):26"/>
				</v:userDefs>
				<path d="M0 408.19 A14.1732 14.1732 0 1 1 28.35 408.19 A14.1732 14.1732 0 0 1 0 408.19 Z" class="st14"/>
			</g>
			<g id="shape59-50" v:mID="59" v:groupContext="shape" transform="translate(1.41732,-25.0803)">
				<title>Circle.14</title>
				<v:userDefs>
					<v:ud v:nameU="visVersion" v:val="VT0(15):26"/>
				</v:userDefs>
				<path d="M0 409.61 A12.7559 12.7559 0 1 1 25.51 409.61 A12.7559 12.7559 0 1 1 0 409.61 Z" class="st15"/>
			</g>
			<g id="shape60-52" v:mID="60" v:groupContext="shape" transform="translate(-7.99361E-15,-40.4009)">
				<title>Box</title>
				<v:userDefs>
					<v:ud v:nameU="visVersion" v:val="VT0(15):26"/>
				</v:userDefs>
				<rect x="0" y="407.244" width="28.3465" height="15.1181" class="st15"/>
			</g>
			<g id="shape61-54" v:mID="61" v:groupContext="shape" v:layerMember="1" transform="translate(7.08661,-24.3379)">
				<title>Dynamic connector.61</title>
				<path d="M7.09 422.36 L7.09 446.7" class="st11"/>
			</g>
		</g>
		<g id="shape73-57" v:mID="73" v:groupContext="shape" transform="translate(122.326,-390.065)">
			<title>Sheet.73</title>
			<desc>SPARQL</desc>
			<v:textBlock v:margins="rect(4,4,4,4)" v:tabSpace="42.5197"/>
			<v:textRect cx="26.4927" cy="412.362" width="52.99" height="20"/>
			<rect x="0" y="402.362" width="52.9854" height="20" class="st4"/>
			<text x="7.35" y="415.96" class="st16" v:langID="1045"><v:paragraph v:horizAlign="1"/><v:tabList/>SPARQL</text>		</g>
		<g id="shape74-60" v:mID="74" v:groupContext="shape" transform="translate(207.78,-391.562)">
			<title>Sheet.74</title>
			<desc>HTML Web Page</desc>
			<v:textBlock v:margins="rect(4,4,4,4)" v:tabSpace="42.5197"/>
			<v:textRect cx="45.9213" cy="412.362" width="91.85" height="20"/>
			<rect x="0" y="402.362" width="91.8425" height="20" class="st4"/>
			<text x="5.63" y="415.96" class="st16" v:langID="1045"><v:paragraph v:horizAlign="1"/><v:tabList/>HTML Web Page</text>		</g>
		<g id="shape75-63" v:mID="75" v:groupContext="shape" transform="translate(310.394,-391.562)">
			<title>Sheet.75</title>
			<desc>Linked Data API</desc>
			<v:textBlock v:margins="rect(4,4,4,4)" v:tabSpace="42.5197"/>
			<v:textRect cx="45.9213" cy="412.362" width="91.85" height="20"/>
			<rect x="0" y="402.362" width="91.8425" height="20" class="st4"/>
			<text x="7.76" y="415.96" class="st16" v:langID="1045"><v:paragraph v:horizAlign="1"/><v:tabList/>Linked Data API</text>		</g>
		<g id="group76-66" transform="translate(211.181,-8.50394)" v:mID="76" v:groupContext="group">
			<v:userDefs>
				<v:ud v:nameU="visVersion" v:prompt="" v:val="VT0(15):26"/>
			</v:userDefs>
			<title>Can.76</title>
			<desc>GitHub</desc>
			<g id="shape77-67" v:mID="77" v:groupContext="shape">
				<title>Sheet.77</title>
				<v:userDefs>
					<v:ud v:nameU="ControlHalfHeight" v:prompt="" v:val="VT0(0.11811023622047):24"/>
					<v:ud v:nameU="FillForegnd" v:prompt="" v:val="VT0(1):26"/>
					<v:ud v:nameU="ControlHalfHeight" v:prompt="" v:val="VT0(0.077409387551449):1"/>
					<v:ud v:nameU="FillForegnd" v:prompt="" v:val="VT5(#ffffff)"/>
				</v:userDefs>
				<path d="M0 416.79 A42.5197 5.57348 -180 1 0 85.04 416.79 L85.04 372.2 L0 372.2 L0 416.79 Z" class="st17"/>
			</g>
			<g id="shape76-69" v:mID="76" v:groupContext="groupContent">
				<v:textBlock v:margins="rect(4,4,4,4)" v:tabSpace="42.5197"/>
				<v:textRect cx="42.5197" cy="394.495" width="85.04" height="55.7348"/>
				<ellipse cx="42.5197" cy="372.201" rx="42.5197" ry="5.57348" class="st17"/>
				<text x="28.17" y="397.49" class="st2" v:langID="1045"><v:paragraph v:horizAlign="1"/><v:tabList/>GitHub</text>			</g>
		</g>
		<g id="shape78-72" v:mID="78" v:groupContext="shape" v:layerMember="1" transform="translate(246.614,-117.103)">
			<title>Dynamic connector.78</title>
			<path d="M7.09 429.04 L7.09 429.4 L7.09 475.23" class="st18"/>
		</g>
		<g id="shape79-77" v:mID="79" v:groupContext="shape" transform="translate(192.047,-86.9159)">
			<title>Sheet.79</title>
			<desc>Vocabulary in RDF File</desc>
			<v:textBlock v:margins="rect(4,4,4,4)" v:tabSpace="42.5197"/>
			<v:textRect cx="61.6535" cy="412.362" width="123.31" height="20"/>
			<rect x="0" y="402.362" width="123.307" height="20" class="st4"/>
			<text x="7.51" y="415.96" class="st5" v:langID="1045"><v:paragraph v:horizAlign="1"/><v:tabList/>Vocabulary in RDF File</text>		</g>
		<g id="shape80-80" v:mID="80" v:groupContext="shape" transform="translate(347.474,-371.001)">
			<title>Circle.45</title>
			<v:userDefs>
				<v:ud v:nameU="visVersion" v:val="VT0(15):26"/>
			</v:userDefs>
			<path d="M0 413.52 A8.84139 8.84139 0 0 1 17.68 413.52 A8.84139 8.84139 0 1 1 -0 413.52 Z" class="st10"/>
		</g>
		<g id="shape81-82" v:mID="81" v:groupContext="shape" transform="translate(244.859,-371.001)">
			<title>Circle.81</title>
			<v:userDefs>
				<v:ud v:nameU="visVersion" v:val="VT0(15):26"/>
			</v:userDefs>
			<path d="M0 413.52 A8.84139 8.84139 0 0 1 17.68 413.52 A8.84139 8.84139 0 1 1 -0 413.52 Z" class="st10"/>
		</g>
		<g id="shape84-84" v:mID="84" v:groupContext="shape" v:layerMember="1" transform="translate(260.787,-371.001)">
			<title>Dynamic connector.84</title>
			<path d="M-7.09 422.36 L-7.09 442.83" class="st11"/>
		</g>
		<g id="shape88-87" v:mID="88" v:groupContext="shape" transform="translate(139.978,-331.654)">
			<title>Circle.88</title>
			<v:userDefs>
				<v:ud v:nameU="visVersion" v:val="VT0(15):26"/>
			</v:userDefs>
			<path d="M0 413.52 A8.84139 8.84139 0 0 1 17.68 413.52 A8.84139 8.84139 0 1 1 -0 413.52 Z" class="st4"/>
		</g>
		<g id="shape89-89" v:mID="89" v:groupContext="shape" v:layerMember="1" transform="translate(141.732,-371.001)">
			<title>Dynamic connector.89</title>
			<path d="M7.09 422.36 L7.09 444.03" class="st11"/>
		</g>
		<g id="shape90-92" v:mID="90" v:groupContext="shape" transform="translate(347.474,-331.654)">
			<title>Circle.90</title>
			<v:userDefs>
				<v:ud v:nameU="visVersion" v:val="VT0(15):26"/>
			</v:userDefs>
			<v:textBlock v:margins="rect(4,4,4,4)" v:tabSpace="42.5197"/>
			<path d="M0 413.52 A8.84139 8.84139 0 0 1 17.68 413.52 A8.84139 8.84139 0 1 1 -0 413.52 Z" class="st4"/>
		</g>
		<g id="shape91-94" v:mID="91" v:groupContext="shape" v:layerMember="1" transform="translate(349.228,-371.001)">
			<title>Dynamic connector.91</title>
			<path d="M7.09 422.36 L7.09 444.03" class="st11"/>
		</g>
		<g id="group92-97" transform="translate(97.7953,543.139) rotate(180)" v:mID="92" v:groupContext="group">
			<title>Sheet.92</title>
			<g id="shape93-98" v:mID="93" v:groupContext="shape" transform="translate(-7.99361E-15,-23.663)">
				<title>Circle</title>
				<v:userDefs>
					<v:ud v:nameU="visVersion" v:val="VT0(15):26"/>
				</v:userDefs>
				<path d="M0 408.19 A14.1732 14.1732 0 1 1 28.35 408.19 A14.1732 14.1732 0 0 1 0 408.19 Z" class="st14"/>
			</g>
			<g id="shape94-100" v:mID="94" v:groupContext="shape" transform="translate(1.41732,-25.0803)">
				<title>Circle.14</title>
				<v:userDefs>
					<v:ud v:nameU="visVersion" v:val="VT0(15):26"/>
				</v:userDefs>
				<path d="M0 409.61 A12.7559 12.7559 0 1 1 25.51 409.61 A12.7559 12.7559 0 1 1 0 409.61 Z" class="st15"/>
			</g>
			<g id="shape95-102" v:mID="95" v:groupContext="shape" transform="translate(-7.99361E-15,-40.4009)">
				<title>Box</title>
				<v:userDefs>
					<v:ud v:nameU="visVersion" v:val="VT0(15):26"/>
				</v:userDefs>
				<rect x="0" y="407.244" width="28.3465" height="15.1181" class="st15"/>
			</g>
			<g id="shape96-104" v:mID="96" v:groupContext="shape" v:layerMember="1" transform="translate(21.2598,-24.3379)">
				<title>Dynamic connector.61</title>
				<path d="M-7.09 422.36 L-7.09 446.7" class="st11"/>
			</g>
		</g>
		<g id="shape97-107" v:mID="97" v:groupContext="shape" transform="translate(74.7807,-254.781)">
			<title>Circle.97</title>
			<v:userDefs>
				<v:ud v:nameU="visVersion" v:val="VT0(15):26"/>
			</v:userDefs>
			<path d="M0 413.52 A8.84139 8.84139 0 0 1 17.68 413.52 A8.84139 8.84139 0 1 1 -0 413.52 Z" class="st19"/>
		</g>
		<g id="shape98-109" v:mID="98" v:groupContext="shape" transform="translate(409.269,-254.781)">
			<title>Circle.98</title>
			<v:userDefs>
				<v:ud v:nameU="visVersion" v:val="VT0(15):26"/>
			</v:userDefs>
			<path d="M0 413.52 A8.84139 8.84139 0 0 1 17.68 413.52 A8.84139 8.84139 0 1 1 -0 413.52 Z" class="st19"/>
		</g>
		<g id="shape99-111" v:mID="99" v:groupContext="shape" v:layerMember="1" transform="translate(411.024,-254.781)">
			<title>Dynamic connector.99</title>
			<path d="M7.09 422.36 L7.09 474.01" class="st20"/>
		</g>
		<g id="shape100-114" v:mID="100" v:groupContext="shape" transform="translate(391.618,-216.758)">
			<title>Sheet.100</title>
			<desc>SPARQL</desc>
			<v:textBlock v:margins="rect(4,4,4,4)" v:tabSpace="42.5197"/>
			<v:textRect cx="26.4927" cy="412.362" width="52.99" height="20"/>
			<rect x="0" y="402.362" width="52.9854" height="20" class="st4"/>
			<text x="7.35" y="415.96" class="st5" v:langID="1045"><v:paragraph v:horizAlign="1"/><v:tabList/>SPARQL</text>		</g>
		<g id="shape101-117" v:mID="101" v:groupContext="shape" v:layerMember="1" transform="translate(90.7087,-254.781)">
			<title>Dynamic connector.41</title>
			<path d="M-7.09 422.36 L-7.09 484.36" class="st20"/>
		</g>
		<g id="shape102-120" v:mID="102" v:groupContext="shape" transform="translate(26.9291,-214.807)">
			<title>Sheet.102</title>
			<desc>Semantic Turkey API</desc>
			<v:textBlock v:margins="rect(4,4,4,4)" v:tabSpace="42.5197"/>
			<v:textRect cx="56.6929" cy="412.362" width="113.39" height="20"/>
			<rect x="0" y="402.362" width="113.386" height="20" class="st4"/>
			<text x="6.81" y="415.96" class="st5" v:langID="1045"><v:paragraph v:horizAlign="1"/><v:tabList/>Semantic Turkey API</text>		</g>
	</g>
</svg>
